<?xml version="1.0" encoding="UTF-8" standalone="no"?>
<!DOCTYPE svg PUBLIC "-//W3C//DTD SVG 1.1//EN"
 "http://www.w3.org/Graphics/SVG/1.1/DTD/svg11.dtd">
<!-- Generated by graphviz version 2.36.0 (20140111.2315)
 -->
<!-- Title: FST Pages: 1 -->
<svg width="812pt" height="158pt"
 viewBox="0.00 0.00 612.00 158.50" xmlns="http://www.w3.org/2000/svg" xmlns:xlink="http://www.w3.org/1999/xlink">
<g id="graph0" class="graph" transform="scale(0.650027 0.650027) rotate(0) translate(4 239.834)">
<title>FST</title>
<polygon fill="white" stroke="none" points="-4,4 -4,-239.834 937.5,-239.834 937.5,4 -4,4"/>
<!-- 0 -->
<g id="node1" class="node"><title>0</title>
<ellipse fill="none" stroke="black" stroke-width="2" cx="18" cy="-116.834" rx="18" ry="18"/>
<text text-anchor="middle" x="18" y="-113.134" font-family="Times,serif" font-size="14.00">0</text>
</g>
<!-- 1 -->
<g id="node2" class="node"><title>1</title>
<ellipse fill="none" stroke="black" cx="166" cy="-116.834" rx="18" ry="18"/>
<text text-anchor="middle" x="166" y="-113.134" font-family="Times,serif" font-size="14.00">1</text>
</g>
<!-- 0&#45;&gt;1 -->
<g id="edge1" class="edge"><title>0&#45;&gt;1</title>
<path fill="none" stroke="black" d="M36.0338,-116.834C60.9555,-116.834 107.626,-116.834 137.463,-116.834"/>
<polygon fill="black" stroke="black" points="137.622,-120.335 147.622,-116.834 137.622,-113.335 137.622,-120.335"/>
<text text-anchor="middle" x="92" y="-120.634" font-family="Times,serif" font-size="14.00">otwórz:&lt;KW&gt;</text>
</g>
<!-- 0&#45;&gt;1 -->
<g id="edge2" class="edge"><title>0&#45;&gt;1</title>
<path fill="none" stroke="black" d="M32.9086,-106.374C38.2739,-102.95 44.6448,-99.579 51,-97.8345 86.1444,-88.1872 97.8556,-88.1872 133,-97.8345 136.078,-98.6795 139.16,-99.906 142.13,-101.335"/>
<polygon fill="black" stroke="black" points="140.659,-104.524 151.091,-106.374 144.09,-98.422 140.659,-104.524"/>
<text text-anchor="middle" x="92" y="-101.634" font-family="Times,serif" font-size="14.00">pokaż:&lt;KW&gt;</text>
</g>
<!-- 2 -->
<g id="node3" class="node"><title>2</title>
<ellipse fill="none" stroke="black" cx="402" cy="-116.834" rx="18" ry="18"/>
<text text-anchor="middle" x="402" y="-113.134" font-family="Times,serif" font-size="14.00">2</text>
</g>
<!-- 1&#45;&gt;2 -->
<g id="edge3" class="edge"><title>1&#45;&gt;2</title>
<path fill="none" stroke="black" d="M184.207,-116.834C224.438,-116.834 324.923,-116.834 373.649,-116.834"/>
<polygon fill="black" stroke="black" points="373.768,-120.335 383.768,-116.834 373.768,-113.335 373.768,-120.335"/>
<text text-anchor="middle" x="284" y="-120.634" font-family="Times,serif" font-size="14.00">&lt;eps&gt;:{INTENT:AppLaunch}</text>
</g>
<!-- 3 -->
<g id="node4" class="node"><title>3</title>
<ellipse fill="none" stroke="black" cx="824" cy="-116.834" rx="18" ry="18"/>
<ellipse fill="none" stroke="black" cx="824" cy="-116.834" rx="22" ry="22"/>
<text text-anchor="middle" x="824" y="-113.134" font-family="Times,serif" font-size="14.00">3</text>
</g>
<!-- 2&#45;&gt;3 -->
<g id="edge4" class="edge"><title>2&#45;&gt;3</title>
<path fill="none" stroke="black" d="M405.306,-134.822C408.6,-152.235 416.466,-177.723 435,-189.834 500.48,-232.626 720.573,-231.141 787,-189.834 801.864,-180.591 810.772,-163.202 816.008,-147.714"/>
<polygon fill="black" stroke="black" points="819.427,-148.5 818.944,-137.916 812.721,-146.49 819.427,-148.5"/>
<text text-anchor="middle" x="611" y="-224.634" font-family="Times,serif" font-size="14.00">galerię:&lt;COMPUTED_SLOT:AppName:GetAppFromAcc&gt;</text>
</g>
<!-- 2&#45;&gt;3 -->
<g id="edge5" class="edge"><title>2&#45;&gt;3</title>
<path fill="none" stroke="black" d="M412.298,-131.871C417.858,-139.377 425.658,-147.718 435,-151.834 470.79,-167.606 750.762,-166.547 787,-151.834 792.795,-149.482 798.17,-145.698 802.904,-141.471"/>
<polygon fill="black" stroke="black" points="805.655,-143.669 810.229,-134.113 800.694,-138.731 805.655,-143.669"/>
<text text-anchor="middle" x="611" y="-166.634" font-family="Times,serif" font-size="14.00">kalkulator:&lt;COMPUTED_SLOT:AppName:GetAppFromAcc&gt;</text>
</g>
<!-- 2&#45;&gt;3 -->
<g id="edge6" class="edge"><title>2&#45;&gt;3</title>
<path fill="none" stroke="black" d="M420.248,-116.834C484.279,-116.834 708.925,-116.834 791.898,-116.834"/>
<polygon fill="black" stroke="black" points="791.967,-120.335 801.967,-116.834 791.967,-113.335 791.967,-120.335"/>
<text text-anchor="middle" x="611" y="-120.634" font-family="Times,serif" font-size="14.00">kontakty:&lt;COMPUTED_SLOT:AppName:GetAppFromAcc&gt;</text>
</g>
<!-- 2&#45;&gt;3 -->
<g id="edge7" class="edge"><title>2&#45;&gt;3</title>
<path fill="none" stroke="black" d="M416.909,-106.374C422.274,-102.95 428.645,-99.579 435,-97.8345 510.432,-77.1281 711.072,-79.0273 787,-97.8345 790.057,-98.5917 793.14,-99.6609 796.149,-100.911"/>
<polygon fill="black" stroke="black" points="794.848,-104.169 805.377,-105.357 797.887,-97.8632 794.848,-104.169"/>
<text text-anchor="middle" x="611" y="-101.634" font-family="Times,serif" font-size="14.00">ustawienia:&lt;COMPUTED_SLOT:AppName:GetAppFromAcc&gt;</text>
</g>
<!-- 2&#45;&gt;3 -->
<g id="edge8" class="edge"><title>2&#45;&gt;3</title>
<path fill="none" stroke="black" d="M408.364,-99.9597C413.216,-87.8028 421.675,-72.2805 435,-64.8345 469.142,-45.756 752.356,-46.6827 787,-64.8345 796.702,-69.9177 804.309,-78.9345 809.98,-88.0477"/>
<polygon fill="black" stroke="black" points="807.078,-90.0297 815.013,-97.051 813.189,-86.6143 807.078,-90.0297"/>
<text text-anchor="middle" x="611" y="-68.6345" font-family="Times,serif" font-size="14.00">zegar:&lt;COMPUTED_SLOT:AppName:GetAppFromAcc&gt;</text>
</g>
<!-- 2&#45;&gt;3 -->
<g id="edge9" class="edge"><title>2&#45;&gt;3</title>
<path fill="none" stroke="black" d="M404.133,-98.7981C406.461,-78.8636 413.541,-47.6231 435,-32.8345 499.409,11.5529 721.697,10.2262 787,-32.8345 804.658,-44.4782 813.688,-66.7743 818.287,-85.4707"/>
<polygon fill="black" stroke="black" points="814.896,-86.3515 820.413,-95.3967 821.741,-84.8855 814.896,-86.3515"/>
<text text-anchor="middle" x="611" y="-36.6345" font-family="Times,serif" font-size="14.00">&lt;unk&gt;:&lt;REWRITE_SLOT:AppName&gt;</text>
</g>
<!-- 3&#45;&gt;3 -->
<g id="edge10" class="edge"><title>3&#45;&gt;3</title>
<path fill="none" stroke="black" d="M803.038,-123.732C772.294,-137.325 779.281,-155.834 824,-155.834 863.653,-155.834 873.639,-141.281 853.958,-128.506"/>
<polygon fill="black" stroke="black" points="855.436,-125.329 844.962,-123.732 852.154,-131.512 855.436,-125.329"/>
<text text-anchor="middle" x="924" y="-159.634" font-family="Times,serif" font-size="14.00">&lt;unk&gt;:&lt;REWRITE_SLOT:AppName&gt;</text>
</g>
</g>
</svg>
