<?xml version="1.0" encoding="UTF-8" standalone="no"?>
<svg
   xmlns:dc="http://purl.org/dc/elements/1.1/"
   xmlns:cc="http://creativecommons.org/ns#"
   xmlns:rdf="http://www.w3.org/1999/02/22-rdf-syntax-ns#"
   xmlns:svg="http://www.w3.org/2000/svg"
   xmlns="http://www.w3.org/2000/svg"
   viewBox="0 0 990 765"
   height="765"
   width="990"
   xml:space="preserve"
   version="1.1"
   id="svg2"><metadata
     id="metadata8"><rdf:RDF><cc:Work
         rdf:about=""><dc:format>image/svg+xml</dc:format><dc:type
           rdf:resource="http://purl.org/dc/dcmitype/StillImage" /></cc:Work></rdf:RDF></metadata><defs
     id="defs6"><clipPath
       id="clipPath12"
       clipPathUnits="userSpaceOnUse"><path
         id="path14"
         d="M 0,0 612,0 612,792 0,792 0,0 Z" /></clipPath><clipPath
       id="clipPath22"
       clipPathUnits="userSpaceOnUse"><path
         id="path24"
         d="m 2410,1820 1300,0 0,4280 -1300,0 0,-4280 z" /></clipPath></defs><g
     clip-path="url(#clipPath12)"
     transform="matrix(0,1.25,1.25,0,0,0)"
     id="g10"><g
       transform="scale(0.1,0.1)"
       id="g16"><g
         id="g18"><g
           clip-path="url(#clipPath22)"
           id="g20"><path
             id="path26"
             style="fill:none;stroke:#000000;stroke-width:20;stroke-linecap:butt;stroke-linejoin:miter;stroke-miterlimit:1;stroke-dasharray:none;stroke-opacity:1"
             d="m 3143.23,2220 c -99.41,0 -180,-80.59 -180,-180 0,-99.41 80.59,-180 180,-180 99.41,0 180,80.59 180,180 0,99.41 -80.59,180 -180,180" /><g
             transform="scale(10,10)"
             id="g28"><text
               id="text30"
               style="font-variant:normal;font-weight:normal;font-size:14px;font-family:Times;-inkscape-font-specification:Times-Roman;writing-mode:lr-tb;fill:#000000;fill-opacity:1;fill-rule:nonzero;stroke:none"
               transform="matrix(0,1,1,0,318.023,200.5)"><tspan
                 id="tspan32"
                 y="0"
                 x="0">0</tspan></text>
</g><path
             id="path34"
             style="fill:none;stroke:#000000;stroke-width:10;stroke-linecap:butt;stroke-linejoin:miter;stroke-miterlimit:1;stroke-dasharray:none;stroke-opacity:1"
             d="m 2633.23,3400 c -99.41,0 -180,-80.59 -180,-180 0,-99.41 80.59,-180 180,-180 99.41,0 180,80.59 180,180 0,99.41 -80.59,180 -180,180" /><g
             transform="scale(10,10)"
             id="g36"><text
               id="text38"
               style="font-variant:normal;font-weight:normal;font-size:14px;font-family:Times;-inkscape-font-specification:Times-Roman;writing-mode:lr-tb;fill:#000000;fill-opacity:1;fill-rule:nonzero;stroke:none"
               transform="matrix(0,1,1,0,267.023,318.5)"><tspan
                 id="tspan40"
                 y="0"
                 x="0">1</tspan></text>
</g><path
             id="path42"
             style="fill:none;stroke:#000000;stroke-width:10;stroke-linecap:butt;stroke-linejoin:miter;stroke-miterlimit:1;stroke-dasharray:none;stroke-opacity:1"
             d="m 3045.13,2192.9 c -34.7,54.1 -72.4,117.1 -101.9,177.1 -91.8,187.2 -172.5,408.9 -228.6,577.5" /><path
             id="path44"
             style="fill:#000000;fill-opacity:1;fill-rule:nonzero;stroke:none"
             d="m 2680.63,2938.9 2.5,106 64.1,-84.4" /><path
             id="path46"
             style="fill:none;stroke:#000000;stroke-width:10;stroke-linecap:butt;stroke-linejoin:miter;stroke-miterlimit:1;stroke-dasharray:none;stroke-opacity:1"
             d="m 2680.63,2938.9 2.5,106 64.1,-84.4 -66.6,-21.6 z" /><g
             transform="scale(10,10)"
             id="g48"><text
               id="text50"
               style="font-variant:normal;font-weight:normal;font-size:14px;font-family:Times;-inkscape-font-specification:Times-Roman;writing-mode:lr-tb;fill:#000000;fill-opacity:1;fill-rule:nonzero;stroke:none"
               transform="matrix(0,1,1,0,270.523,243)"><tspan
                 id="tspan52"
                 y="0"
                 x="0 6.8264508 13.652902 19.695353 23.413803 29.456255 33.174706">one:ein</tspan></text>
</g><path
             id="path54"
             style="fill:none;stroke:#000000;stroke-width:10;stroke-linecap:butt;stroke-linejoin:miter;stroke-miterlimit:1;stroke-dasharray:none;stroke-opacity:1"
             d="m 3283.23,3400 c -99.41,0 -180,-80.59 -180,-180 0,-99.41 80.59,-180 180,-180 99.41,0 180,80.59 180,180 0,99.41 -80.59,180 -180,180" /><g
             transform="scale(10,10)"
             id="g56"><text
               id="text58"
               style="font-variant:normal;font-weight:normal;font-size:14px;font-family:Times;-inkscape-font-specification:Times-Roman;writing-mode:lr-tb;fill:#000000;fill-opacity:1;fill-rule:nonzero;stroke:none"
               transform="matrix(0,1,1,0,332.023,318.5)"><tspan
                 id="tspan60"
                 y="0"
                 x="0">2</tspan></text>
</g><path
             id="path62"
             style="fill:none;stroke:#000000;stroke-width:10;stroke-linecap:butt;stroke-linejoin:miter;stroke-miterlimit:1;stroke-dasharray:none;stroke-opacity:1"
             d="m 3134.73,2222.1 c -5.1,171 -3.8,439.8 38.5,667.9 3.9,20.8 8.8,42 14.5,63.2" /><path
             id="path64"
             style="fill:#000000;fill-opacity:1;fill-rule:nonzero;stroke:none"
             d="m 3154.63,2964.7 63.2,85 3.6,-105.9" /><path
             id="path66"
             style="fill:none;stroke:#000000;stroke-width:10;stroke-linecap:butt;stroke-linejoin:miter;stroke-miterlimit:1;stroke-dasharray:none;stroke-opacity:1"
             d="m 3154.63,2964.7 63.2,85 3.6,-105.9 -66.8,20.9 z" /><g
             transform="scale(10,10)"
             id="g68"><text
               id="text70"
               style="font-variant:normal;font-weight:normal;font-size:14px;font-family:Times;-inkscape-font-specification:Times-Roman;writing-mode:lr-tb;fill:#000000;fill-opacity:1;fill-rule:nonzero;stroke:none"
               transform="matrix(0,1,1,0,309.523,238)"><tspan
                 id="tspan72"
                 y="0"
                 x="0 3.726717 13.669434 20.50415 24.230867 30.281586 40.2243 46.275021">two:zwei</tspan></text>
</g><path
             id="path74"
             style="fill:none;stroke:#000000;stroke-width:10;stroke-linecap:butt;stroke-linejoin:miter;stroke-miterlimit:1;stroke-dasharray:none;stroke-opacity:1"
             d="m 3259.53,2180.6 c 41.2,54.6 82.5,121.2 103.7,189.4 58.3,187.7 33.6,409.3 -3.2,577.8" /><path
             id="path76"
             style="fill:#000000;fill-opacity:1;fill-rule:nonzero;stroke:none"
             d="m 3325.93,2939.6 10.2,105.5 57.8,-88.8" /><path
             id="path78"
             style="fill:none;stroke:#000000;stroke-width:10;stroke-linecap:butt;stroke-linejoin:miter;stroke-miterlimit:1;stroke-dasharray:none;stroke-opacity:1"
             d="m 3325.93,2939.6 10.2,105.5 57.8,-88.8 -68,-16.7 z" /><g
             transform="scale(10,10)"
             id="g80"><text
               id="text82"
               style="font-variant:normal;font-weight:normal;font-size:14px;font-family:Times;-inkscape-font-specification:Times-Roman;writing-mode:lr-tb;fill:#000000;fill-opacity:1;fill-rule:nonzero;stroke:none"
               transform="matrix(0,1,1,0,332.523,237)"><tspan
                 id="tspan84"
                 y="0"
                 x="0 3.7274301 10.56286 15.06029 21.111719 27.163151 30.890579 37.726009 42.223438 48.274872">three:drei</tspan></text>
</g><path
             id="path86"
             style="fill:none;stroke:#000000;stroke-width:10;stroke-linecap:butt;stroke-linejoin:miter;stroke-miterlimit:1;stroke-dasharray:none;stroke-opacity:1"
             d="m 3307.83,2118.6 c 102.4,52.5 225.7,135.5 285.4,251.4 106,205.4 86.8,305.8 0,520 -21.4,52.9 -56.2,101.8 -94.9,144.8" /><path
             id="path88"
             style="fill:#000000;fill-opacity:1;fill-rule:nonzero;stroke:none"
             d="m 3473.53,3010.1 -47,94.9 95.9,-44.9" /><path
             id="path90"
             style="fill:none;stroke:#000000;stroke-width:10;stroke-linecap:butt;stroke-linejoin:miter;stroke-miterlimit:1;stroke-dasharray:none;stroke-opacity:1"
             d="m 3473.53,3010.1 -47,94.9 95.9,-44.9 -48.9,-50 z" /><g
             transform="scale(10,10)"
             id="g92"><text
               id="text94"
               style="font-variant:normal;font-weight:normal;font-size:14px;font-family:Times;-inkscape-font-specification:Times-Roman;writing-mode:lr-tb;fill:#000000;fill-opacity:1;fill-rule:nonzero;stroke:none"
               transform="matrix(0,1,1,0,355.523,239)"><tspan
                 id="tspan96"
                 y="0"
                 x="0 4.5526252 11.44325 18.333876 22.886499 26.669125 33.55975 37.342377 43.449001">four:vier</tspan></text>
</g><path
             id="path98"
             style="fill:none;stroke:#000000;stroke-width:10;stroke-linecap:butt;stroke-linejoin:miter;stroke-miterlimit:1;stroke-dasharray:none;stroke-opacity:1"
             d="m 2933.23,4660 c -99.41,0 -180,-80.59 -180,-180 0,-99.41 80.59,-180 180,-180 99.41,0 180,80.59 180,180 0,99.41 -80.59,180 -180,180" /><path
             id="path100"
             style="fill:none;stroke:#000000;stroke-width:10;stroke-linecap:butt;stroke-linejoin:miter;stroke-miterlimit:1;stroke-dasharray:none;stroke-opacity:1"
             d="m 2933.23,4700 c -121.5,0 -220,-98.5 -220,-220 0,-121.5 98.5,-220 220,-220 121.5,0 220,98.5 220,220 0,121.5 -98.5,220 -220,220" /><g
             transform="scale(10,10)"
             id="g102"><text
               id="text104"
               style="font-variant:normal;font-weight:normal;font-size:14px;font-family:Times;-inkscape-font-specification:Times-Roman;writing-mode:lr-tb;fill:#000000;fill-opacity:1;fill-rule:nonzero;stroke:none"
               transform="matrix(0,1,1,0,297.023,444.5)"><tspan
                 id="tspan106"
                 y="0"
                 x="0">3</tspan></text>
</g><path
             id="path108"
             style="fill:none;stroke:#000000;stroke-width:10;stroke-linecap:butt;stroke-linejoin:miter;stroke-miterlimit:1;stroke-dasharray:none;stroke-opacity:1"
             d="m 2673.73,3397.2 c 47.6,196.7 127.5,527 186.1,769.3" /><path
             id="path110"
             style="fill:#000000;fill-opacity:1;fill-rule:nonzero;stroke:none"
             d="m 2825.93,4175.3 57.6,88.9 10.5,-105.4" /><path
             id="path112"
             style="fill:none;stroke:#000000;stroke-width:10;stroke-linecap:butt;stroke-linejoin:miter;stroke-miterlimit:1;stroke-dasharray:none;stroke-opacity:1"
             d="m 2825.93,4175.3 57.6,88.9 10.5,-105.4 -68.1,16.5 z" /><g
             transform="scale(10,10)"
             id="g114"><text
               id="text116"
               style="font-variant:normal;font-weight:normal;font-size:14px;font-family:Times;-inkscape-font-specification:Times-Roman;writing-mode:lr-tb;fill:#000000;fill-opacity:1;fill-rule:nonzero;stroke:none"
               transform="matrix(0,1,1,0,268.523,357.5)"><tspan
                 id="tspan118"
                 y="0"
                 x="0 6.8786888 12.973378 19.068068 23.608755 27.379444 36.596134 40.366821 46.461514">beer:Bier</tspan></text>
</g><path
             id="path120"
             style="fill:none;stroke:#000000;stroke-width:10;stroke-linecap:butt;stroke-linejoin:miter;stroke-miterlimit:1;stroke-dasharray:none;stroke-opacity:1"
             d="m 3239.63,3395.9 c -47,177.2 -124.7,466.1 -196.4,714.1 -5.8,20.1 -11.9,40.8 -18.1,61.7" /><path
             id="path122"
             style="fill:#000000;fill-opacity:1;fill-rule:nonzero;stroke:none"
             d="m 2991.33,4162.6 4.7,105.9 62.3,-85.7" /><path
             id="path124"
             style="fill:none;stroke:#000000;stroke-width:10;stroke-linecap:butt;stroke-linejoin:miter;stroke-miterlimit:1;stroke-dasharray:none;stroke-opacity:1"
             d="m 2991.33,4162.6 4.7,105.9 62.3,-85.7 -67,-20.2 z" /><g
             transform="scale(10,10)"
             id="g126"><text
               id="text128"
               style="font-variant:normal;font-weight:normal;font-size:14px;font-family:Times;-inkscape-font-specification:Times-Roman;writing-mode:lr-tb;fill:#000000;fill-opacity:1;fill-rule:nonzero;stroke:none"
               transform="matrix(0,1,1,0,300.523,355)"><tspan
                 id="tspan130"
                 y="0"
                 x="0 6.8462501 12.9085 18.970751 23.479 28.77125 32.509499 41.693748 45.431999 51.494251">beers:Bier</tspan></text>
</g><path
             id="path132"
             style="fill:none;stroke:#000000;stroke-width:10;stroke-linecap:butt;stroke-linejoin:miter;stroke-miterlimit:1;stroke-dasharray:none;stroke-opacity:1"
             d="m 2933.23,6020 c -99.41,0 -180,-80.59 -180,-180 0,-99.41 80.59,-180 180,-180 99.41,0 180,80.59 180,180 0,99.41 -80.59,180 -180,180" /><path
             id="path134"
             style="fill:none;stroke:#000000;stroke-width:10;stroke-linecap:butt;stroke-linejoin:miter;stroke-miterlimit:1;stroke-dasharray:none;stroke-opacity:1"
             d="m 2933.23,6060 c -121.5,0 -220,-98.5 -220,-220 0,-121.5 98.5,-220 220,-220 121.5,0 220,98.5 220,220 0,121.5 -98.5,220 -220,220" /><g
             transform="scale(10,10)"
             id="g136"><text
               id="text138"
               style="font-variant:normal;font-weight:normal;font-size:14px;font-family:Times;-inkscape-font-specification:Times-Roman;writing-mode:lr-tb;fill:#000000;fill-opacity:1;fill-rule:nonzero;stroke:none"
               transform="matrix(0,1,1,0,297.023,580.5)"><tspan
                 id="tspan140"
                 y="0"
                 x="0">4</tspan></text>
</g><path
             id="path142"
             style="fill:none;stroke:#000000;stroke-width:10;stroke-linecap:butt;stroke-linejoin:miter;stroke-miterlimit:1;stroke-dasharray:none;stroke-opacity:1"
             d="m 2933.23,4702.3 c 0,219.6 0,564.7 0,815.4" /><path
             id="path144"
             style="fill:#000000;fill-opacity:1;fill-rule:nonzero;stroke:none"
             d="m 2898.23,5518.7 35,100 35,-100" /><path
             id="path146"
             style="fill:none;stroke:#000000;stroke-width:10;stroke-linecap:butt;stroke-linejoin:miter;stroke-miterlimit:1;stroke-dasharray:none;stroke-opacity:1"
             d="m 2898.23,5518.7 35,100 35,-100 -70,0 z" /><g
             transform="scale(10,10)"
             id="g148"><text
               id="text150"
               style="font-variant:normal;font-weight:normal;font-size:14px;font-family:Times;-inkscape-font-specification:Times-Roman;writing-mode:lr-tb;fill:#000000;fill-opacity:1;fill-rule:nonzero;stroke:none"
               transform="matrix(0,1,1,0,289.523,485)"><tspan
                 id="tspan152"
                 y="0"
                 x="0 6.8527341 10.597468 16.666203 22.734936 28.03367 34.102406 37.847137 44.699871 48.444607 52.189339 55.934074">please:bitte</tspan></text>
</g></g></g></g></g></svg>