<?xml version="1.0" encoding="UTF-8" standalone="no"?>
<!DOCTYPE svg PUBLIC "-//W3C//DTD SVG 1.1//EN"
 "http://www.w3.org/Graphics/SVG/1.1/DTD/svg11.dtd">
<!-- Generated by graphviz version 2.36.0 (20140111.2315)
 -->
<!-- Title: FST Pages: 1 -->
<svg width="612pt" height="82pt"
 viewBox="0.00 0.00 612.00 81.55" xmlns="http://www.w3.org/2000/svg" xmlns:xlink="http://www.w3.org/1999/xlink">
<g id="graph0" class="graph" transform="scale(0.715371 0.715371) rotate(0) translate(4 110)">
<title>FST</title>
<polygon fill="white" stroke="none" points="-4,4 -4,-110 851.5,-110 851.5,4 -4,4"/>
<!-- 0 -->
<g id="node1" class="node"><title>0</title>
<ellipse fill="none" stroke="black" stroke-width="2" cx="18" cy="-51" rx="18" ry="18"/>
<text text-anchor="middle" x="18" y="-47.3" font-family="Times,serif" font-size="14.00">0</text>
</g>
<!-- 1 -->
<g id="node2" class="node"><title>1</title>
<ellipse fill="none" stroke="black" cx="370" cy="-51" rx="18" ry="18"/>
<text text-anchor="middle" x="370" y="-47.3" font-family="Times,serif" font-size="14.00">1</text>
</g>
<!-- 0&#45;&gt;1 -->
<g id="edge1" class="edge"><title>0&#45;&gt;1</title>
<path fill="none" stroke="black" d="M35.4969,-55.319C40.4457,-56.4215 45.9114,-57.4499 51,-58 177.375,-71.6607 210.625,-71.6607 337,-58 338.749,-57.8109 340.543,-57.5653 342.345,-57.2796"/>
<polygon fill="black" stroke="black" points="343.348,-60.6507 352.503,-55.319 342.021,-53.7776 343.348,-60.6507"/>
<text text-anchor="middle" x="197" y="-71.8" font-family="Times,serif" font-size="14.00">kim:&lt;KW&gt;/100</text>
</g>
<!-- 3 -->
<g id="node3" class="node"><title>3</title>
<ellipse fill="none" stroke="black" cx="197" cy="-18" rx="18" ry="18"/>
<text text-anchor="middle" x="197" y="-14.3" font-family="Times,serif" font-size="14.00">3</text>
</g>
<!-- 0&#45;&gt;3 -->
<g id="edge2" class="edge"><title>0&#45;&gt;3</title>
<path fill="none" stroke="black" d="M35.5544,-46.6127C40.5049,-45.3681 45.9571,-44.0636 51,-43 91.7812,-34.3991 139.478,-26.6067 168.71,-22.0858"/>
<polygon fill="black" stroke="black" points="169.601,-25.4904 178.956,-20.5185 168.542,-18.5708 169.601,-25.4904"/>
<text text-anchor="middle" x="94" y="-46.8" font-family="Times,serif" font-size="14.00">kto:&lt;KW&gt;/100</text>
</g>
<!-- 2 -->
<g id="node4" class="node"><title>2</title>
<ellipse fill="none" stroke="black" cx="524" cy="-51" rx="18" ry="18"/>
<text text-anchor="middle" x="524" y="-47.3" font-family="Times,serif" font-size="14.00">2</text>
</g>
<!-- 1&#45;&gt;2 -->
<g id="edge3" class="edge"><title>1&#45;&gt;2</title>
<path fill="none" stroke="black" d="M388.141,-51C414.255,-51 464.257,-51 495.493,-51"/>
<polygon fill="black" stroke="black" points="495.689,-54.5001 505.689,-51 495.689,-47.5001 495.689,-54.5001"/>
<text text-anchor="middle" x="447" y="-54.8" font-family="Times,serif" font-size="14.00">jest:&lt;KW&gt;/100</text>
</g>
<!-- 1&#45;&gt;2 -->
<g id="edge4" class="edge"><title>1&#45;&gt;2</title>
<path fill="none" stroke="black" d="M384.909,-40.5392C390.274,-37.1152 396.645,-33.7445 403,-32 440.716,-21.6468 453.284,-21.6468 491,-32 494.078,-32.845 497.16,-34.0715 500.13,-35.5008"/>
<polygon fill="black" stroke="black" points="498.659,-38.6893 509.091,-40.5392 502.09,-32.5875 498.659,-38.6893"/>
<text text-anchor="middle" x="447" y="-35.8" font-family="Times,serif" font-size="14.00">był:&lt;KW&gt;/100</text>
</g>
<!-- 3&#45;&gt;1 -->
<g id="edge6" class="edge"><title>3&#45;&gt;1</title>
<path fill="none" stroke="black" d="M215.192,-20.7112C241.521,-24.9492 293.369,-33.6335 337,-43 338.732,-43.3719 340.513,-43.7707 342.306,-44.1845"/>
<polygon fill="black" stroke="black" points="341.898,-47.6868 352.441,-46.6356 343.544,-40.883 341.898,-47.6868"/>
<text text-anchor="middle" x="297" y="-46.8" font-family="Times,serif" font-size="14.00">to:&lt;KW&gt;/100</text>
</g>
<!-- 4 -->
<g id="node5" class="node"><title>4</title>
<ellipse fill="none" stroke="black" cx="736" cy="-51" rx="18" ry="18"/>
<ellipse fill="none" stroke="black" cx="736" cy="-51" rx="22" ry="22"/>
<text text-anchor="middle" x="736" y="-47.3" font-family="Times,serif" font-size="14.00">4</text>
</g>
<!-- 2&#45;&gt;4 -->
<g id="edge5" class="edge"><title>2&#45;&gt;4</title>
<path fill="none" stroke="black" d="M542.185,-51C577.553,-51 658.923,-51 703.828,-51"/>
<polygon fill="black" stroke="black" points="703.882,-54.5001 713.882,-51 703.882,-47.5001 703.882,-54.5001"/>
<text text-anchor="middle" x="628" y="-54.8" font-family="Times,serif" font-size="14.00">&lt;eps&gt;:{INTENT:WhoIs}</text>
</g>
<!-- 4&#45;&gt;4 -->
<g id="edge7" class="edge"><title>4&#45;&gt;4</title>
<path fill="none" stroke="black" d="M719.092,-64.9949C711.38,-77.146 717.016,-90 736,-90 749.942,-90 756.684,-83.0678 756.228,-74.5725"/>
<polygon fill="black" stroke="black" points="759.49,-73.2968 752.908,-64.9949 752.877,-75.5897 759.49,-73.2968"/>
<text text-anchor="middle" x="736" y="-93.8" font-family="Times,serif" font-size="14.00">&lt;unk&gt;:&lt;REWRITE_SLOT:Persona&gt;/90</text>
</g>
</g>
</svg>
