<?xml version="1.0" encoding="UTF-8" standalone="no"?>
<svg
   xmlns:dc="http://purl.org/dc/elements/1.1/"
   xmlns:cc="http://creativecommons.org/ns#"
   xmlns:rdf="http://www.w3.org/1999/02/22-rdf-syntax-ns#"
   xmlns:svg="http://www.w3.org/2000/svg"
   xmlns="http://www.w3.org/2000/svg"
   viewBox="0 0 990 765"
   height="765"
   width="990"
   xml:space="preserve"
   version="1.1"
   id="svg2"><metadata
     id="metadata8"><rdf:RDF><cc:Work
         rdf:about=""><dc:format>image/svg+xml</dc:format><dc:type
           rdf:resource="http://purl.org/dc/dcmitype/StillImage" /></cc:Work></rdf:RDF></metadata><defs
     id="defs6"><clipPath
       id="clipPath12"
       clipPathUnits="userSpaceOnUse"><path
         id="path14"
         d="M 0,0 612,0 612,792 0,792 0,0 Z" /></clipPath><clipPath
       id="clipPath22"
       clipPathUnits="userSpaceOnUse"><path
         id="path24"
         d="m 1820,900 2480,0 0,6120 -2480,0 0,-6120 z" /></clipPath></defs><g
     clip-path="url(#clipPath12)"
     transform="matrix(0,1.25,1.25,0,0,0)"
     id="g10"><g
       transform="scale(0.1,0.1)"
       id="g16"><g
         id="g18"><g
           clip-path="url(#clipPath22)"
           id="g20"><path
             id="path26"
             style="fill:none;stroke:#000000;stroke-width:19.9510994;stroke-linecap:butt;stroke-linejoin:miter;stroke-miterlimit:1;stroke-dasharray:none;stroke-opacity:1"
             d="m 4052.57,1299.02 c -99.17,0 -179.56,-80.39 -179.56,-179.56 0,-99.17 80.39,-179.558 179.56,-179.558 99.16,0 179.56,80.388 179.56,179.558 0,99.17 -80.4,179.56 -179.56,179.56" /><g
             transform="scale(10,10)"
             id="g28"><text
               id="text30"
               style="font-variant:normal;font-weight:normal;font-size:13.96580029px;font-family:Times;-inkscape-font-specification:Times-Roman;writing-mode:lr-tb;fill:#000000;fill-opacity:1;fill-rule:nonzero;stroke:none"
               transform="matrix(0,1,1,0,408.948,108.455)"><tspan
                 id="tspan32"
                 y="0"
                 x="0">0</tspan></text>
</g><path
             id="path34"
             style="fill:none;stroke:#000000;stroke-width:9.9755497;stroke-linecap:butt;stroke-linejoin:miter;stroke-miterlimit:1;stroke-dasharray:none;stroke-opacity:1"
             d="m 4052.57,3014.82 c -99.17,0 -179.56,-80.39 -179.56,-179.56 0,-99.17 80.39,-179.56 179.56,-179.56 99.16,0 179.56,80.39 179.56,179.56 0,99.17 -80.4,179.56 -179.56,179.56" /><g
             transform="scale(10,10)"
             id="g36"><text
               id="text38"
               style="font-variant:normal;font-weight:normal;font-size:13.96580029px;font-family:Times;-inkscape-font-specification:Times-Roman;writing-mode:lr-tb;fill:#000000;fill-opacity:1;fill-rule:nonzero;stroke:none"
               transform="matrix(0,1,1,0,408.948,280.034)"><tspan
                 id="tspan40"
                 y="0"
                 x="0">1</tspan></text>
</g><path
             id="path42"
             style="fill:none;stroke:#000000;stroke-width:9.9755497;stroke-linecap:butt;stroke-linejoin:miter;stroke-miterlimit:1;stroke-dasharray:none;stroke-opacity:1"
             d="m 4052.57,1301.42 c 0,295.27 0,901.09 0,1253.42" /><path
             id="path44"
             style="fill:#000000;fill-opacity:1;fill-rule:nonzero;stroke:none"
             d="m 4017.65,2555.64 34.92,99.76 34.91,-99.76" /><path
             id="path46"
             style="fill:none;stroke:#000000;stroke-width:9.9755497;stroke-linecap:butt;stroke-linejoin:miter;stroke-miterlimit:1;stroke-dasharray:none;stroke-opacity:1"
             d="m 4017.65,2555.64 34.92,99.76 34.91,-99.76 -69.83,0 z" /><g
             transform="scale(10,10)"
             id="g48"><text
               id="text50"
               style="font-variant:normal;font-weight:normal;font-size:13.96580029px;font-family:Times;-inkscape-font-specification:Times-Roman;writing-mode:lr-tb;fill:#000000;fill-opacity:1;fill-rule:nonzero;stroke:none"
               transform="matrix(0,1,1,0,401.466,144.866)"><tspan
                 id="tspan52"
                 y="0"
                 x="0 9.1698103 15.239212 27.50943 36.679241 43.516762 51.904488 57.973888 68.037514 80.307724 95.678352">otwórz:&lt;KW&gt;</tspan></text>
</g><path
             id="path54"
             style="fill:none;stroke:#000000;stroke-width:9.9755497;stroke-linecap:butt;stroke-linejoin:miter;stroke-miterlimit:1;stroke-dasharray:none;stroke-opacity:1"
             d="m 4052.57,5768.07 c -99.17,0 -179.56,-80.39 -179.56,-179.56 0,-99.17 80.39,-179.56 179.56,-179.56 99.16,0 179.56,80.39 179.56,179.56 0,99.17 -80.4,179.56 -179.56,179.56" /><path
             id="path56"
             style="fill:none;stroke:#000000;stroke-width:9.9755497;stroke-linecap:butt;stroke-linejoin:miter;stroke-miterlimit:1;stroke-dasharray:none;stroke-opacity:1"
             d="m 4052.57,5807.97 c -121.21,0 -219.46,-98.26 -219.46,-219.46 0,-121.21 98.25,-219.46 219.46,-219.46 121.2,0 219.46,98.25 219.46,219.46 0,121.2 -98.26,219.46 -219.46,219.46" /><g
             transform="scale(10,10)"
             id="g58"><text
               id="text60"
               style="font-variant:normal;font-weight:normal;font-size:13.96580029px;font-family:Times;-inkscape-font-specification:Times-Roman;writing-mode:lr-tb;fill:#000000;fill-opacity:1;fill-rule:nonzero;stroke:none"
               transform="matrix(0,1,1,0,408.948,555.359)"><tspan
                 id="tspan62"
                 y="0"
                 x="0">2</tspan></text>
</g><path
             id="path64"
             style="fill:none;stroke:#000000;stroke-width:9.9755497;stroke-linecap:butt;stroke-linejoin:miter;stroke-miterlimit:1;stroke-dasharray:none;stroke-opacity:1"
             d="m 4052.57,3016.21 c 0,450 0,1672.31 0,2250.79" /><path
             id="path66"
             style="fill:#000000;fill-opacity:1;fill-rule:nonzero;stroke:none"
             d="m 4017.65,5267.39 34.92,99.76 34.91,-99.76" /><path
             id="path68"
             style="fill:none;stroke:#000000;stroke-width:9.9755497;stroke-linecap:butt;stroke-linejoin:miter;stroke-miterlimit:1;stroke-dasharray:none;stroke-opacity:1"
             d="m 4017.65,5267.39 34.92,99.76 34.91,-99.76 -69.83,0 z" /><g
             transform="scale(10,10)"
             id="g70"><text
               id="text72"
               style="font-variant:normal;font-weight:normal;font-size:13.96580029px;font-family:Times;-inkscape-font-specification:Times-Roman;writing-mode:lr-tb;fill:#000000;fill-opacity:1;fill-rule:nonzero;stroke:none"
               transform="matrix(0,1,1,0,401.466,316.944)"><tspan
                 id="tspan74"
                 y="0"
                 x="0 7.744328 13.81276 20.663277 25.963591 33.70792 37.458027 44.029228 48.547459 58.498383 66.899101 75.299828 85.250748 93.651466 97.401581 107.3525 114.20302 120.27145 127.12197 140.17329 146.24173 153.09225 163.04318 169.89369 176.74422 181.26244 187.33087 192.63118 197.9315">&lt;eps&gt;:{INTENT:OpenWebAddress}</tspan></text>
</g><path
             id="path76"
             style="fill:none;stroke:#000000;stroke-width:9.9755497;stroke-linecap:butt;stroke-linejoin:miter;stroke-miterlimit:1;stroke-dasharray:none;stroke-opacity:1"
             d="m 3840.49,5545.51 c -94.87,-4.09 -176.97,10.28 -176.97,43 0,19.95 30.43,33.02 75.71,39.3" /><path
             id="path78"
             style="fill:#000000;fill-opacity:1;fill-rule:nonzero;stroke:none"
             d="m 3739.54,5662.83 100.95,-31.33 -98.46,-38.5" /><path
             id="path80"
             style="fill:none;stroke:#000000;stroke-width:9.9755497;stroke-linecap:butt;stroke-linejoin:miter;stroke-miterlimit:1;stroke-dasharray:none;stroke-opacity:1"
             d="m 3739.54,5662.83 100.95,-31.33 -98.46,-38.5 -2.49,69.83 z" /><g
             transform="scale(10,10)"
             id="g82"><text
               id="text84"
               style="font-variant:normal;font-weight:normal;font-size:13.96580029px;font-family:Times;-inkscape-font-specification:Times-Roman;writing-mode:lr-tb;fill:#000000;fill-opacity:1;fill-rule:nonzero;stroke:none"
               transform="matrix(0,1,1,0,362.561,423.682)"><tspan
                 id="tspan86"
                 y="0"
                 x="0 10.628179 21.256357 31.884537 36.311901 44.733482 54.59354 63.671516 77.400101 87.260162 92.455643 101.53362 110.6116 118.13937 126.44922 135.52719 146.15538 155.23335 159.66071 173.3893 180.13498 187.66275 198.29094 205.81871 213.34648 218.54196 225.28764 231.26521 237.24278 245.55263 252.29832 257.4938 261.92117">www:&lt;REWRITE_SLOT:WebAddressPart&gt;</tspan></text>
</g><path
             id="path88"
             style="fill:none;stroke:#000000;stroke-width:9.9755497;stroke-linecap:butt;stroke-linejoin:miter;stroke-miterlimit:1;stroke-dasharray:none;stroke-opacity:1"
             d="m 3848.57,5515.59 c -177.17,-33.22 -364.61,-8.88 -364.61,72.92 0,66.54 123.7,94.97 265.15,85.49" /><path
             id="path90"
             style="fill:#000000;fill-opacity:1;fill-rule:nonzero;stroke:none"
             d="m 3754,5708.61 94.57,-47.18 -103.45,-22.14" /><path
             id="path92"
             style="fill:none;stroke:#000000;stroke-width:9.9755497;stroke-linecap:butt;stroke-linejoin:miter;stroke-miterlimit:1;stroke-dasharray:none;stroke-opacity:1"
             d="m 3754,5708.61 94.57,-47.18 -103.45,-22.14 8.88,69.32 z" /><g
             transform="scale(10,10)"
             id="g94"><text
               id="text96"
               style="font-variant:normal;font-weight:normal;font-size:13.96580029px;font-family:Times;-inkscape-font-specification:Times-Roman;writing-mode:lr-tb;fill:#000000;fill-opacity:1;fill-rule:nonzero;stroke:none"
               transform="matrix(0,1,1,0,344.605,426.176)"><tspan
                 id="tspan98"
                 y="0"
                 x="0 6.782444 14.346973 25.793995 30.258116 38.716457 48.613274 57.728008 71.493347 81.390167 86.622406 95.737144 104.85188 112.4164 120.76302 129.87775 140.54269 149.65742 154.12154 167.88689 174.66933 182.23386 192.89879 200.46332 208.02785 213.26009 220.04254 226.05687 232.07118 240.4178 247.20024 252.43248 256.89661">com:&lt;REWRITE_SLOT:WebAddressPart&gt;</tspan></text>
</g><path
             id="path100"
             style="fill:none;stroke:#000000;stroke-width:9.9755497;stroke-linecap:butt;stroke-linejoin:miter;stroke-miterlimit:1;stroke-dasharray:none;stroke-opacity:1"
             d="m 3857.14,5497.83 c -251.38,-75.22 -552.74,-44.99 -552.74,90.68 0,118.21 228.74,156.42 453.79,114.52" /><path
             id="path102"
             style="fill:#000000;fill-opacity:1;fill-rule:nonzero;stroke:none"
             d="m 3768.36,5736.45 88.78,-57.26 -105.14,-10.58" /><path
             id="path104"
             style="fill:none;stroke:#000000;stroke-width:9.9755497;stroke-linecap:butt;stroke-linejoin:miter;stroke-miterlimit:1;stroke-dasharray:none;stroke-opacity:1"
             d="m 3768.36,5736.45 88.78,-57.26 -105.14,-10.58 16.36,67.84 z" /><g
             transform="scale(10,10)"
             id="g106"><text
               id="text108"
               style="font-variant:normal;font-weight:normal;font-size:13.96580029px;font-family:Times;-inkscape-font-specification:Times-Roman;writing-mode:lr-tb;fill:#000000;fill-opacity:1;fill-rule:nonzero;stroke:none"
               transform="matrix(0,1,1,0,326.649,432.66)"><tspan
                 id="tspan110"
                 y="0"
                 x="0 7.5894361 12.078465 16.567493 25.050739 34.972466 44.112103 57.902355 67.824081 73.08123 82.220871 91.360504 98.949944 107.32146 116.46111 127.15095 136.29059 140.77962 154.56987 161.37721 168.96666 179.65649 187.24594 194.83537 200.09251 206.89987 212.9391 218.97833 227.34985 234.15721 239.41435 243.90338">pl:&lt;REWRITE_SLOT:WebAddressPart&gt;</tspan></text>
</g><path
             id="path112"
             style="fill:none;stroke:#000000;stroke-width:9.9755497;stroke-linecap:butt;stroke-linejoin:miter;stroke-miterlimit:1;stroke-dasharray:none;stroke-opacity:1"
             d="m 3861.34,5485.56 c -320.32,-122.3 -736.5,-87.99 -736.5,102.95 0,172.28 338.87,217.07 640.33,134.27" /><path
             id="path114"
             style="fill:#000000;fill-opacity:1;fill-rule:nonzero;stroke:none"
             d="m 3777.24,5755.6 84.1,-64.14 -105.75,-2.3" /><path
             id="path116"
             style="fill:none;stroke:#000000;stroke-width:9.9755497;stroke-linecap:butt;stroke-linejoin:miter;stroke-miterlimit:1;stroke-dasharray:none;stroke-opacity:1"
             d="m 3777.24,5755.6 84.1,-64.14 -105.75,-2.3 21.65,66.44 z" /><g
             transform="scale(10,10)"
             id="g118"><text
               id="text120"
               style="font-variant:normal;font-weight:normal;font-size:13.96580029px;font-family:Times;-inkscape-font-specification:Times-Roman;writing-mode:lr-tb;fill:#000000;fill-opacity:1;fill-rule:nonzero;stroke:none"
               transform="matrix(0,1,1,0,308.693,428.171)"><tspan
                 id="tspan122"
                 y="0"
                 x="0 6.7791781 14.340441 21.901705 26.36256 34.817635 44.711185 53.822651 67.584732 77.478279 82.70726 91.818726 100.93019 108.49146 116.8348 125.94627 136.60794 145.71941 150.18027 163.94234 170.72151 178.28278 188.94446 196.50571 204.06697 209.29594 216.07513 222.08618 228.09724 236.4406 243.21977 248.44875 252.90961">edu:&lt;REWRITE_SLOT:WebAddressPart&gt;</tspan></text>
</g><path
             id="path124"
             style="fill:none;stroke:#000000;stroke-width:9.9755497;stroke-linecap:butt;stroke-linejoin:miter;stroke-miterlimit:1;stroke-dasharray:none;stroke-opacity:1"
             d="m 3864.73,5476.98 c -386.55,-172.87 -919.45,-135.67 -919.45,111.53 0,227.84 452.89,277.32 826.47,148.24" /><path
             id="path126"
             style="fill:#000000;fill-opacity:1;fill-rule:nonzero;stroke:none"
             d="m 3784.82,5769.07 79.91,-69.03 -105.54,4.09" /><path
             id="path128"
             style="fill:none;stroke:#000000;stroke-width:9.9755497;stroke-linecap:butt;stroke-linejoin:miter;stroke-miterlimit:1;stroke-dasharray:none;stroke-opacity:1"
             d="m 3784.82,5769.07 79.91,-69.03 -105.54,4.09 25.63,64.94 z" /><g
             transform="scale(10,10)"
             id="g130"><text
               id="text132"
               style="font-variant:normal;font-weight:normal;font-size:13.96580029px;font-family:Times;-inkscape-font-specification:Times-Roman;writing-mode:lr-tb;fill:#000000;fill-opacity:1;fill-rule:nonzero;stroke:none"
               transform="matrix(0,1,1,0,290.738,436.152)"><tspan
                 id="tspan134"
                 y="0"
                 x="0 4.1301618 8.6513662 17.16679 27.120689 36.292507 50.114933 60.068832 65.358154 74.529976 83.70179 91.323402 99.727097 108.89891 119.62093 128.79276 133.31395 147.13638 153.97591 161.59752 172.31953 179.94115 187.56276 192.85208 199.69162 205.76302 211.83443 220.23813 227.07765 232.36697 236.88818">.:&lt;REWRITE_SLOT:WebAddressPart&gt;</tspan></text>
</g><path
             id="path136"
             style="fill:none;stroke:#000000;stroke-width:9.9755497;stroke-linecap:butt;stroke-linejoin:miter;stroke-miterlimit:1;stroke-dasharray:none;stroke-opacity:1"
             d="m 3868.02,5470.89 c -451.29,-225.74 -1102.3,-186.53 -1102.3,117.62 0,283.9 567.41,336.97 1010.03,159.11" /><path
             id="path138"
             style="fill:#000000;fill-opacity:1;fill-rule:nonzero;stroke:none"
             d="m 3791.41,5778.84 76.61,-72.72 -105.24,9.08" /><path
             id="path140"
             style="fill:none;stroke:#000000;stroke-width:9.9755497;stroke-linecap:butt;stroke-linejoin:miter;stroke-miterlimit:1;stroke-dasharray:none;stroke-opacity:1"
             d="m 3791.41,5778.84 76.61,-72.72 -105.24,9.08 28.63,63.64 z" /><g
             transform="scale(10,10)"
             id="g142"><text
               id="text144"
               style="font-variant:normal;font-weight:normal;font-size:13.96580029px;font-family:Times;-inkscape-font-specification:Times-Roman;writing-mode:lr-tb;fill:#000000;fill-opacity:1;fill-rule:nonzero;stroke:none"
               transform="matrix(0,1,1,0,272.781,419.692)"><tspan
                 id="tspan146"
                 y="0"
                 x="0 8.4341183 15.974425 23.514732 31.055038 39.489159 43.929058 52.363174 62.235771 71.326279 85.067406 94.940002 100.14802 109.23853 118.32904 125.86935 134.19174 143.28224 153.92296 163.01347 167.45337 181.19449 187.95271 195.49303 206.13374 213.67404 221.21436 226.42238 233.18059 239.1707 245.1608 253.48318 260.24142 265.44943 269.88934">&lt;unk&gt;:&lt;REWRITE_SLOT:WebAddressPart&gt;</tspan></text>
</g></g></g></g></g></svg>