<?xml version="1.0" encoding="UTF-8" standalone="no"?>
<!DOCTYPE svg PUBLIC "-//W3C//DTD SVG 1.1//EN"
 "http://www.w3.org/Graphics/SVG/1.1/DTD/svg11.dtd">
<!-- Generated by graphviz version 2.36.0 (20140111.2315)
 -->
<!-- Title: FST Pages: 1 -->
<svg width="612pt" height="28pt"
 viewBox="0.00 0.00 612.00 27.98" xmlns="http://www.w3.org/2000/svg" xmlns:xlink="http://www.w3.org/1999/xlink">
<g id="graph0" class="graph" transform="scale(0.497561 0.497561) rotate(0) translate(4 52.2355)">
<title>FST</title>
<polygon fill="white" stroke="none" points="-4,4 -4,-52.2355 1226,-52.2355 1226,4 -4,4"/>
<!-- 0 -->
<g id="node1" class="node"><title>0</title>
<ellipse fill="none" stroke="black" stroke-width="2" cx="18" cy="-26.2355" rx="18" ry="18"/>
<text text-anchor="middle" x="18" y="-22.5355" font-family="Times,serif" font-size="14.00">0</text>
</g>
<!-- 1 -->
<g id="node2" class="node"><title>1</title>
<ellipse fill="none" stroke="black" cx="166" cy="-26.2355" rx="18" ry="18"/>
<text text-anchor="middle" x="166" y="-22.5355" font-family="Times,serif" font-size="14.00">1</text>
</g>
<!-- 0&#45;&gt;1 -->
<g id="edge1" class="edge"><title>0&#45;&gt;1</title>
<path fill="none" stroke="black" d="M36.0338,-26.2355C60.9555,-26.2355 107.626,-26.2355 137.463,-26.2355"/>
<polygon fill="black" stroke="black" points="137.622,-29.7356 147.622,-26.2355 137.622,-22.7356 137.622,-29.7356"/>
<text text-anchor="middle" x="92" y="-30.0355" font-family="Times,serif" font-size="14.00">na:&lt;KW&gt;/100</text>
</g>
<!-- 0&#45;&gt;1 -->
<g id="edge2" class="edge"><title>0&#45;&gt;1</title>
<path fill="none" stroke="black" d="M32.9086,-15.7747C38.2739,-12.3506 44.6448,-8.97999 51,-7.23547 86.1444,2.41182 97.8556,2.41182 133,-7.23547 136.078,-8.08047 139.16,-9.307 142.13,-10.7363"/>
<polygon fill="black" stroke="black" points="140.659,-13.9247 151.091,-15.7747 144.09,-7.82297 140.659,-13.9247"/>
<text text-anchor="middle" x="92" y="-11.0355" font-family="Times,serif" font-size="14.00">o:&lt;KW&gt;/100</text>
</g>
<!-- 2 -->
<g id="node3" class="node"><title>2</title>
<ellipse fill="none" stroke="black" cx="438" cy="-26.2355" rx="18" ry="18"/>
<text text-anchor="middle" x="438" y="-22.5355" font-family="Times,serif" font-size="14.00">2</text>
</g>
<!-- 1&#45;&gt;2 -->
<g id="edge3" class="edge"><title>1&#45;&gt;2</title>
<path fill="none" stroke="black" d="M184.3,-26.2355C230.02,-26.2355 354.329,-26.2355 409.727,-26.2355"/>
<polygon fill="black" stroke="black" points="409.844,-29.7356 419.844,-26.2355 409.844,-22.7356 409.844,-29.7356"/>
<text text-anchor="middle" x="302" y="-30.0355" font-family="Times,serif" font-size="14.00">&lt;eps&gt;:{INTENT:SetAlarmForTime}</text>
</g>
<!-- 3 -->
<g id="node4" class="node"><title>3</title>
<ellipse fill="none" stroke="black" cx="742" cy="-26.2355" rx="18" ry="18"/>
<text text-anchor="middle" x="742" y="-22.5355" font-family="Times,serif" font-size="14.00">3</text>
</g>
<!-- 2&#45;&gt;3 -->
<g id="edge4" class="edge"><title>2&#45;&gt;3</title>
<path fill="none" stroke="black" d="M456.102,-26.2355C506.129,-26.2355 652.503,-26.2355 713.657,-26.2355"/>
<polygon fill="black" stroke="black" points="713.711,-29.7356 723.711,-26.2355 713.711,-22.7356 713.711,-29.7356"/>
<text text-anchor="middle" x="590" y="-30.0355" font-family="Times,serif" font-size="14.00">[0&#45;9]*[0&#45;9]:&lt;REWRITE_SLOT:Hour&gt;/500</text>
</g>
<!-- 4 -->
<g id="node5" class="node"><title>4</title>
<ellipse fill="none" stroke="black" cx="880" cy="-26.2355" rx="18" ry="18"/>
<text text-anchor="middle" x="880" y="-22.5355" font-family="Times,serif" font-size="14.00">4</text>
</g>
<!-- 3&#45;&gt;4 -->
<g id="edge5" class="edge"><title>3&#45;&gt;4</title>
<path fill="none" stroke="black" d="M760.224,-26.2355C783.319,-26.2355 824.568,-26.2355 851.86,-26.2355"/>
<polygon fill="black" stroke="black" points="851.915,-29.7356 861.915,-26.2355 851.915,-22.7356 851.915,-29.7356"/>
<text text-anchor="middle" x="811" y="-30.0355" font-family="Times,serif" font-size="14.00">::&lt;KW&gt;/100</text>
</g>
<!-- 5 -->
<g id="node6" class="node"><title>5</title>
<ellipse fill="none" stroke="black" cx="1200" cy="-26.2355" rx="18" ry="18"/>
<ellipse fill="none" stroke="black" cx="1200" cy="-26.2355" rx="22" ry="22"/>
<text text-anchor="middle" x="1200" y="-22.5355" font-family="Times,serif" font-size="14.00">5</text>
</g>
<!-- 4&#45;&gt;5 -->
<g id="edge6" class="edge"><title>4&#45;&gt;5</title>
<path fill="none" stroke="black" d="M898.097,-26.2355C949.179,-26.2355 1101.21,-26.2355 1167.51,-26.2355"/>
<polygon fill="black" stroke="black" points="1167.75,-29.7356 1177.75,-26.2355 1167.75,-22.7356 1167.75,-29.7356"/>
<text text-anchor="middle" x="1038" y="-30.0355" font-family="Times,serif" font-size="14.00">[0&#45;5]*[0&#45;9]:&lt;REWRITE_SLOT:Minute&gt;/500</text>
</g>
</g>
</svg>
