<?xml version="1.0" encoding="UTF-8" standalone="no"?>
<!DOCTYPE svg PUBLIC "-//W3C//DTD SVG 1.1//EN"
 "http://www.w3.org/Graphics/SVG/1.1/DTD/svg11.dtd">
<!-- Generated by graphviz version 2.36.0 (20140111.2315)
 -->
<!-- Title: FST Pages: 1 -->
<svg width="612pt" height="325pt"
 viewBox="0.00 0.00 612.00 325.19" xmlns="http://www.w3.org/2000/svg" xmlns:xlink="http://www.w3.org/1999/xlink">
<g id="graph0" class="graph" transform="scale(0.352941 0.352941) rotate(0) translate(4 917.382)">
<title>FST</title>
<polygon fill="white" stroke="none" points="-4,4 -4,-917.382 1730,-917.382 1730,4 -4,4"/>
<!-- 0 -->
<g id="node1" class="node"><title>0</title>
<ellipse fill="none" stroke="black" stroke-width="2" cx="18" cy="-497.382" rx="18" ry="18"/>
<text text-anchor="middle" x="18" y="-493.682" font-family="Times,serif" font-size="14.00">0</text>
</g>
<!-- 1 -->
<g id="node2" class="node"><title>1</title>
<ellipse fill="none" stroke="black" cx="184" cy="-497.382" rx="18" ry="18"/>
<text text-anchor="middle" x="184" y="-493.682" font-family="Times,serif" font-size="14.00">1</text>
</g>
<!-- 0&#45;&gt;1 -->
<g id="edge1" class="edge"><title>0&#45;&gt;1</title>
<path fill="none" stroke="black" d="M36.2409,-497.382C64.7367,-497.382 121.879,-497.382 155.843,-497.382"/>
<polygon fill="black" stroke="black" points="155.99,-500.882 165.99,-497.382 155.99,-493.882 155.99,-500.882"/>
<text text-anchor="middle" x="101" y="-501.182" font-family="Times,serif" font-size="14.00">ustaw:&lt;KW&gt;/100</text>
</g>
<!-- 2 -->
<g id="node3" class="node"><title>2</title>
<ellipse fill="none" stroke="black" cx="356" cy="-497.382" rx="18" ry="18"/>
<text text-anchor="middle" x="356" y="-493.682" font-family="Times,serif" font-size="14.00">2</text>
</g>
<!-- 1&#45;&gt;2 -->
<g id="edge2" class="edge"><title>1&#45;&gt;2</title>
<path fill="none" stroke="black" d="M202.236,-497.382C231.841,-497.382 292.567,-497.382 327.888,-497.382"/>
<polygon fill="black" stroke="black" points="327.971,-500.882 337.971,-497.382 327.971,-493.882 327.971,-500.882"/>
<text text-anchor="middle" x="270" y="-501.182" font-family="Times,serif" font-size="14.00">budzik:&lt;KW&gt;/100</text>
</g>
<!-- 1&#45;&gt;2 -->
<g id="edge3" class="edge"><title>1&#45;&gt;2</title>
<path fill="none" stroke="black" d="M198.909,-486.921C204.274,-483.497 210.645,-480.126 217,-478.382 262.431,-465.911 277.569,-465.911 323,-478.382 326.078,-479.227 329.16,-480.453 332.13,-481.883"/>
<polygon fill="black" stroke="black" points="330.659,-485.071 341.091,-486.921 334.09,-478.969 330.659,-485.071"/>
<text text-anchor="middle" x="270" y="-482.182" font-family="Times,serif" font-size="14.00">alarm:&lt;KW&gt;/100</text>
</g>
<!-- 3 -->
<g id="node4" class="node"><title>3</title>
<ellipse fill="none" stroke="black" cx="628" cy="-497.382" rx="18" ry="18"/>
<text text-anchor="middle" x="628" y="-493.682" font-family="Times,serif" font-size="14.00">3</text>
</g>
<!-- 2&#45;&gt;3 -->
<g id="edge4" class="edge"><title>2&#45;&gt;3</title>
<path fill="none" stroke="black" d="M374.3,-497.382C420.02,-497.382 544.329,-497.382 599.727,-497.382"/>
<polygon fill="black" stroke="black" points="599.844,-500.882 609.844,-497.382 599.844,-493.882 599.844,-500.882"/>
<text text-anchor="middle" x="492" y="-501.182" font-family="Times,serif" font-size="14.00">&lt;eps&gt;:{INTENT:SetAlarmForTime}</text>
</g>
<!-- 4 -->
<g id="node5" class="node"><title>4</title>
<ellipse fill="none" stroke="black" cx="1030" cy="-583.382" rx="18" ry="18"/>
<ellipse fill="none" stroke="black" cx="1030" cy="-583.382" rx="22" ry="22"/>
<text text-anchor="middle" x="1030" y="-579.682" font-family="Times,serif" font-size="14.00">4</text>
</g>
<!-- 3&#45;&gt;4 -->
<g id="edge5" class="edge"><title>3&#45;&gt;4</title>
<path fill="none" stroke="black" d="M642.269,-508.41C647.759,-512.447 654.383,-516.683 661,-519.382 779.025,-567.516 932.754,-579.464 997.782,-582.418"/>
<polygon fill="black" stroke="black" points="997.659,-585.916 1007.8,-582.832 997.949,-578.922 997.659,-585.916"/>
<text text-anchor="middle" x="827" y="-585.182" font-family="Times,serif" font-size="14.00">&lt;eps&gt;:&lt;ELICITATION_ACTION:SetAlarmForWhatTime&gt;</text>
</g>
<!-- 5 -->
<g id="node6" class="node"><title>5</title>
<ellipse fill="none" stroke="black" cx="1030" cy="-459.382" rx="18" ry="18"/>
<text text-anchor="middle" x="1030" y="-455.682" font-family="Times,serif" font-size="14.00">5</text>
</g>
<!-- 3&#45;&gt;5 -->
<g id="edge6" class="edge"><title>3&#45;&gt;5</title>
<path fill="none" stroke="black" d="M646.007,-498.475C698.55,-501.404 862.608,-507.194 993,-475.382 996.742,-474.469 1000.58,-473.183 1004.29,-471.733"/>
<polygon fill="black" stroke="black" points="1005.89,-474.855 1013.66,-467.654 1003.09,-468.437 1005.89,-474.855"/>
<text text-anchor="middle" x="827" y="-504.182" font-family="Times,serif" font-size="14.00">o:&lt;KW&gt;/100</text>
</g>
<!-- 3&#45;&gt;5 -->
<g id="edge7" class="edge"><title>3&#45;&gt;5</title>
<path fill="none" stroke="black" d="M636.711,-481.522C642.116,-472.347 650.289,-461.609 661,-456.382 777.155,-399.694 939.531,-434.471 1002.55,-451.557"/>
<polygon fill="black" stroke="black" points="1001.88,-455.006 1012.46,-454.324 1003.77,-448.264 1001.88,-455.006"/>
<text text-anchor="middle" x="827" y="-460.182" font-family="Times,serif" font-size="14.00">na:&lt;KW&gt;/100</text>
</g>
<!-- 5&#45;&gt;5 -->
<g id="edge8" class="edge"><title>5&#45;&gt;5</title>
<path fill="none" stroke="black" d="M1019.09,-473.798C1015.28,-484.548 1018.91,-495.382 1030,-495.382 1037.45,-495.382 1041.53,-490.491 1042.26,-484.021"/>
<polygon fill="black" stroke="black" points="1045.69,-483.256 1040.91,-473.798 1038.75,-484.17 1045.69,-483.256"/>
<text text-anchor="middle" x="1030" y="-499.182" font-family="Times,serif" font-size="14.00">godzinę:&lt;KW&gt;/100</text>
</g>
<!-- 5&#45;&gt;5 -->
<g id="edge9" class="edge"><title>5&#45;&gt;5</title>
<path fill="none" stroke="black" d="M1015.41,-470.515C998.065,-489.157 1002.93,-513.382 1030,-513.382 1053.26,-513.382 1060.13,-495.491 1050.59,-478.628"/>
<polygon fill="black" stroke="black" points="1053.35,-476.475 1044.59,-470.515 1047.72,-480.637 1053.35,-476.475"/>
<text text-anchor="middle" x="1030" y="-517.182" font-family="Times,serif" font-size="14.00">godzinie:&lt;KW&gt;/100</text>
</g>
<!-- 6 -->
<g id="node7" class="node"><title>6</title>
<ellipse fill="none" stroke="black" cx="1292" cy="-459.382" rx="18" ry="18"/>
<text text-anchor="middle" x="1292" y="-455.682" font-family="Times,serif" font-size="14.00">6</text>
</g>
<!-- 5&#45;&gt;6 -->
<g id="edge10" class="edge"><title>5&#45;&gt;6</title>
<path fill="none" stroke="black" d="M1035.85,-476.701C1040.83,-495.256 1048.35,-525.65 1052,-552.382 1056.56,-585.779 1042.58,-832.143 1067,-855.382 1128.81,-914.211 1196.28,-913.24 1259,-855.382 1285.95,-830.519 1290.21,-573.709 1290.88,-487.457"/>
<polygon fill="black" stroke="black" points="1294.38,-487.381 1290.94,-477.358 1287.38,-487.334 1294.38,-487.381"/>
<text text-anchor="middle" x="1163" y="-902.182" font-family="Times,serif" font-size="14.00">01:&lt;REWRITE_SLOT:Hour&gt;/500</text>
</g>
<!-- 5&#45;&gt;6 -->
<g id="edge11" class="edge"><title>5&#45;&gt;6</title>
<path fill="none" stroke="black" d="M1035.82,-476.706C1040.76,-495.266 1048.25,-525.663 1052,-552.382 1056.1,-581.588 1045.57,-797.126 1067,-817.382 1082.51,-832.034 1243.26,-831.78 1259,-817.382 1283.13,-795.31 1289.2,-569.311 1290.61,-488.18"/>
<polygon fill="black" stroke="black" points="1294.11,-487.785 1290.77,-477.73 1287.11,-487.672 1294.11,-487.785"/>
<text text-anchor="middle" x="1163" y="-831.182" font-family="Times,serif" font-size="14.00">02:&lt;REWRITE_SLOT:Hour&gt;/500</text>
</g>
<!-- 5&#45;&gt;6 -->
<g id="edge12" class="edge"><title>5&#45;&gt;6</title>
<path fill="none" stroke="black" d="M1035.77,-476.713C1040.67,-495.279 1048.13,-525.681 1052,-552.382 1055.63,-577.397 1048.55,-762.107 1067,-779.382 1082.57,-793.961 1243.18,-793.697 1259,-779.382 1280.45,-759.966 1288.15,-562.155 1290.3,-487.604"/>
<polygon fill="black" stroke="black" points="1293.8,-487.628 1290.57,-477.535 1286.8,-487.435 1293.8,-487.628"/>
<text text-anchor="middle" x="1163" y="-793.182" font-family="Times,serif" font-size="14.00">03:&lt;REWRITE_SLOT:Hour&gt;/500</text>
</g>
<!-- 5&#45;&gt;6 -->
<g id="edge13" class="edge"><title>5&#45;&gt;6</title>
<path fill="none" stroke="black" d="M1035.7,-476.724C1040.54,-495.298 1047.95,-525.707 1052,-552.382 1055.16,-573.209 1051.53,-727.087 1067,-741.382 1082.67,-755.858 1243.09,-755.591 1259,-741.382 1277.75,-724.638 1286.94,-555.373 1289.9,-487.407"/>
<polygon fill="black" stroke="black" points="1293.4,-487.546 1290.32,-477.407 1286.4,-487.251 1293.4,-487.546"/>
<text text-anchor="middle" x="1163" y="-755.182" font-family="Times,serif" font-size="14.00">04:&lt;REWRITE_SLOT:Hour&gt;/500</text>
</g>
<!-- 5&#45;&gt;6 -->
<g id="edge14" class="edge"><title>5&#45;&gt;6</title>
<path fill="none" stroke="black" d="M1035.59,-476.74C1040.35,-495.328 1047.69,-525.748 1052,-552.382 1057.39,-585.669 1042.01,-680.747 1067,-703.382 1082.81,-717.702 1242.96,-717.452 1259,-703.382 1290.6,-675.653 1292.53,-546.34 1291.73,-488.03"/>
<polygon fill="black" stroke="black" points="1295.22,-487.624 1291.55,-477.687 1288.22,-487.747 1295.22,-487.624"/>
<text text-anchor="middle" x="1163" y="-717.182" font-family="Times,serif" font-size="14.00">05:&lt;REWRITE_SLOT:Hour&gt;/500</text>
</g>
<!-- 5&#45;&gt;6 -->
<g id="edge15" class="edge"><title>5&#45;&gt;6</title>
<path fill="none" stroke="black" d="M1035.42,-476.77C1040.03,-495.382 1047.25,-525.823 1052,-552.382 1056.46,-577.317 1047.95,-648.69 1067,-665.382 1083.05,-679.439 1242.8,-679.261 1259,-665.382 1285.37,-642.795 1290.19,-538.364 1290.95,-487.447"/>
<polygon fill="black" stroke="black" points="1294.45,-487.48 1291.05,-477.443 1287.45,-487.405 1294.45,-487.48"/>
<text text-anchor="middle" x="1163" y="-679.182" font-family="Times,serif" font-size="14.00">06:&lt;REWRITE_SLOT:Hour&gt;/500</text>
</g>
<!-- 5&#45;&gt;6 -->
<g id="edge16" class="edge"><title>5&#45;&gt;6</title>
<path fill="none" stroke="black" d="M1035.08,-476.837C1039.4,-495.505 1046.38,-525.993 1052,-552.382 1059.08,-585.63 1040.71,-605.83 1067,-627.382 1083.5,-640.907 1242.56,-640.982 1259,-627.382 1280.03,-609.975 1287.36,-530.871 1289.82,-487.702"/>
<polygon fill="black" stroke="black" points="1293.32,-487.728 1290.35,-477.56 1286.33,-487.366 1293.32,-487.728"/>
<text text-anchor="middle" x="1163" y="-641.182" font-family="Times,serif" font-size="14.00">07:&lt;REWRITE_SLOT:Hour&gt;/500</text>
</g>
<!-- 5&#45;&gt;6 -->
<g id="edge17" class="edge"><title>5&#45;&gt;6</title>
<path fill="none" stroke="black" d="M1034.61,-476.83C1041.78,-510.66 1057.91,-582.47 1067,-589.382 1083.98,-602.298 1242.21,-602.541 1259,-589.382 1274.81,-576.994 1283.85,-522.099 1288.07,-487.726"/>
<polygon fill="black" stroke="black" points="1291.59,-487.703 1289.27,-477.366 1284.64,-486.897 1291.59,-487.703"/>
<text text-anchor="middle" x="1163" y="-602.182" font-family="Times,serif" font-size="14.00">08:&lt;REWRITE_SLOT:Hour&gt;/500</text>
</g>
<!-- 5&#45;&gt;6 -->
<g id="edge18" class="edge"><title>5&#45;&gt;6</title>
<path fill="none" stroke="black" d="M1032.26,-477.606C1034.85,-499.353 1042.78,-534.848 1067,-551.382 1102.24,-575.435 1224.23,-576.104 1259,-551.382 1279.16,-537.048 1286.73,-509.055 1289.51,-487.694"/>
<polygon fill="black" stroke="black" points="1293.02,-487.837 1290.55,-477.532 1286.05,-487.124 1293.02,-487.837"/>
<text text-anchor="middle" x="1163" y="-573.182" font-family="Times,serif" font-size="14.00">09:&lt;REWRITE_SLOT:Hour&gt;/500</text>
</g>
<!-- 5&#45;&gt;6 -->
<g id="edge19" class="edge"><title>5&#45;&gt;6</title>
<path fill="none" stroke="black" d="M1037.08,-476.164C1042.69,-488.921 1052.4,-505.566 1067,-513.382 1104.62,-533.514 1221.93,-534.505 1259,-513.382 1269.58,-507.351 1277.03,-496.291 1282.05,-485.744"/>
<polygon fill="black" stroke="black" points="1285.35,-486.935 1286.01,-476.361 1278.9,-484.215 1285.35,-486.935"/>
<text text-anchor="middle" x="1163" y="-532.182" font-family="Times,serif" font-size="14.00">10:&lt;REWRITE_SLOT:Hour&gt;/500</text>
</g>
<!-- 5&#45;&gt;6 -->
<g id="edge20" class="edge"><title>5&#45;&gt;6</title>
<path fill="none" stroke="black" d="M1046.29,-467.874C1052.52,-470.875 1059.91,-473.877 1067,-475.382 1150.47,-493.096 1175.95,-494.987 1259,-475.382 1261.68,-474.748 1264.4,-473.853 1267.06,-472.806"/>
<polygon fill="black" stroke="black" points="1268.65,-475.926 1276.25,-468.545 1265.7,-469.575 1268.65,-475.926"/>
<text text-anchor="middle" x="1163" y="-493.182" font-family="Times,serif" font-size="14.00">11:&lt;REWRITE_SLOT:Hour&gt;/500</text>
</g>
<!-- 5&#45;&gt;6 -->
<g id="edge21" class="edge"><title>5&#45;&gt;6</title>
<path fill="none" stroke="black" d="M1048.19,-457.656C1054.14,-457.137 1060.86,-456.637 1067,-456.382 1152.26,-452.835 1173.76,-452.395 1259,-456.382 1260.53,-456.453 1262.11,-456.544 1263.69,-456.65"/>
<polygon fill="black" stroke="black" points="1263.83,-460.172 1274.08,-457.498 1264.4,-453.196 1263.83,-460.172"/>
<text text-anchor="middle" x="1163" y="-460.182" font-family="Times,serif" font-size="14.00">12:&lt;REWRITE_SLOT:Hour&gt;/500</text>
</g>
<!-- 5&#45;&gt;6 -->
<g id="edge22" class="edge"><title>5&#45;&gt;6</title>
<path fill="none" stroke="black" d="M1044.04,-447.965C1050.49,-443.071 1058.66,-437.907 1067,-435.382 1148.67,-410.654 1178.05,-408.397 1259,-435.382 1262.96,-436.703 1266.83,-438.728 1270.43,-441.054"/>
<polygon fill="black" stroke="black" points="1268.61,-444.061 1278.72,-447.224 1272.79,-438.446 1268.61,-444.061"/>
<text text-anchor="middle" x="1163" y="-439.182" font-family="Times,serif" font-size="14.00">13:&lt;REWRITE_SLOT:Hour&gt;/500</text>
</g>
<!-- 5&#45;&gt;6 -->
<g id="edge23" class="edge"><title>5&#45;&gt;6</title>
<path fill="none" stroke="black" d="M1035.68,-442.252C1040.73,-427.439 1050.39,-406.945 1067,-397.382 1140.95,-354.806 1186.13,-352.986 1259,-397.382 1271.41,-404.94 1279.21,-419.025 1284,-431.862"/>
<polygon fill="black" stroke="black" points="1280.8,-433.323 1287.23,-441.741 1287.45,-431.149 1280.8,-433.323"/>
<text text-anchor="middle" x="1163" y="-401.182" font-family="Times,serif" font-size="14.00">14:&lt;REWRITE_SLOT:Hour&gt;/500</text>
</g>
<!-- 5&#45;&gt;6 -->
<g id="edge24" class="edge"><title>5&#45;&gt;6</title>
<path fill="none" stroke="black" d="M1030.72,-441.2C1031.44,-415.233 1037.08,-368.252 1067,-346.382 1101.45,-321.204 1224.97,-320.648 1259,-346.382 1284.73,-365.837 1290.88,-404.401 1291.82,-431.026"/>
<polygon fill="black" stroke="black" points="1288.33,-431.316 1291.95,-441.27 1295.33,-431.226 1288.33,-431.316"/>
<text text-anchor="middle" x="1163" y="-350.182" font-family="Times,serif" font-size="14.00">15:&lt;REWRITE_SLOT:Hour&gt;/500</text>
</g>
<!-- 5&#45;&gt;6 -->
<g id="edge25" class="edge"><title>5&#45;&gt;6</title>
<path fill="none" stroke="black" d="M1032.56,-441.362C1036.13,-404.975 1046.22,-324.791 1067,-308.382 1100.49,-281.941 1225.85,-281.521 1259,-308.382 1277.74,-323.565 1285.95,-392.047 1289.17,-431.371"/>
<polygon fill="black" stroke="black" points="1285.68,-431.684 1289.93,-441.389 1292.66,-431.151 1285.68,-431.684"/>
<text text-anchor="middle" x="1163" y="-312.182" font-family="Times,serif" font-size="14.00">16:&lt;REWRITE_SLOT:Hour&gt;/500</text>
</g>
<!-- 5&#45;&gt;6 -->
<g id="edge26" class="edge"><title>5&#45;&gt;6</title>
<path fill="none" stroke="black" d="M1031.63,-441.213C1033.55,-398.175 1040.88,-291.996 1067,-270.382 1099.87,-243.18 1226.41,-242.845 1259,-270.382 1282.94,-290.607 1288.97,-383.361 1290.49,-430.985"/>
<polygon fill="black" stroke="black" points="1287,-431.335 1290.77,-441.237 1294,-431.145 1287,-431.335"/>
<text text-anchor="middle" x="1163" y="-274.182" font-family="Times,serif" font-size="14.00">17:&lt;REWRITE_SLOT:Hour&gt;/500</text>
</g>
<!-- 5&#45;&gt;6 -->
<g id="edge27" class="edge"><title>5&#45;&gt;6</title>
<path fill="none" stroke="black" d="M1030.98,-441.196C1031.35,-392.05 1035.32,-258.456 1067,-231.382 1099.44,-203.664 1226.8,-203.387 1259,-231.382 1288.41,-256.952 1291.58,-375.857 1291.42,-431.07"/>
<polygon fill="black" stroke="black" points="1287.92,-431.194 1291.36,-441.217 1294.92,-431.242 1287.92,-431.194"/>
<text text-anchor="middle" x="1163" y="-235.182" font-family="Times,serif" font-size="14.00">18:&lt;REWRITE_SLOT:Hour&gt;/500</text>
</g>
<!-- 5&#45;&gt;6 -->
<g id="edge28" class="edge"><title>5&#45;&gt;6</title>
<path fill="none" stroke="black" d="M1030.52,-441.323C1029.48,-386.705 1029.67,-225.014 1067,-192.382 1083.06,-178.341 1243.04,-178.223 1259,-192.382 1276.66,-208.048 1286.39,-365.598 1289.7,-431.077"/>
<polygon fill="black" stroke="black" points="1286.2,-431.3 1290.19,-441.116 1293.19,-430.956 1286.2,-431.3"/>
<text text-anchor="middle" x="1163" y="-196.182" font-family="Times,serif" font-size="14.00">19:&lt;REWRITE_SLOT:Hour&gt;/500</text>
</g>
<!-- 5&#45;&gt;6 -->
<g id="edge29" class="edge"><title>5&#45;&gt;6</title>
<path fill="none" stroke="black" d="M1031.83,-441.318C1034.83,-379.901 1046.07,-181.917 1067,-163.382 1098.94,-135.092 1227.25,-134.879 1259,-163.382 1278.72,-181.081 1287.38,-360.297 1290.04,-430.959"/>
<polygon fill="black" stroke="black" points="1286.56,-431.46 1290.42,-441.326 1293.56,-431.205 1286.56,-431.46"/>
<text text-anchor="middle" x="1163" y="-167.182" font-family="Times,serif" font-size="14.00">20:&lt;REWRITE_SLOT:Hour&gt;/500</text>
</g>
<!-- 5&#45;&gt;6 -->
<g id="edge30" class="edge"><title>5&#45;&gt;6</title>
<path fill="none" stroke="black" d="M1031.56,-441.244C1033.79,-374.429 1043.16,-144.801 1067,-123.382 1098.74,-94.8642 1227.43,-94.6777 1259,-123.382 1281.57,-143.906 1288.6,-353.4 1290.43,-430.824"/>
<polygon fill="black" stroke="black" points="1286.94,-431.332 1290.67,-441.251 1293.94,-431.175 1286.94,-431.332"/>
<text text-anchor="middle" x="1163" y="-127.182" font-family="Times,serif" font-size="14.00">21:&lt;REWRITE_SLOT:Hour&gt;/500</text>
</g>
<!-- 5&#45;&gt;6 -->
<g id="edge31" class="edge"><title>5&#45;&gt;6</title>
<path fill="none" stroke="black" d="M1031.34,-441.098C1032.87,-369.074 1040.25,-107.694 1067,-83.3818 1098.57,-54.6856 1227.58,-54.5194 1259,-83.3818 1284.48,-106.786 1289.7,-347.579 1290.74,-431.065"/>
<polygon fill="black" stroke="black" points="1287.24,-431.146 1290.86,-441.105 1294.24,-431.066 1287.24,-431.146"/>
<text text-anchor="middle" x="1163" y="-87.1818" font-family="Times,serif" font-size="14.00">22:&lt;REWRITE_SLOT:Hour&gt;/500</text>
</g>
<!-- 5&#45;&gt;6 -->
<g id="edge32" class="edge"><title>5&#45;&gt;6</title>
<path fill="none" stroke="black" d="M1031.16,-441.275C1032.03,-364.764 1037.28,-70.6381 1067,-43.3818 1129.89,14.2983 1196.39,14.5979 1259,-43.3818 1287.38,-69.6622 1290.68,-341.677 1290.99,-431.079"/>
<polygon fill="black" stroke="black" points="1287.49,-431.29 1291.02,-441.282 1294.49,-431.273 1287.49,-431.29"/>
<text text-anchor="middle" x="1163" y="-47.1818" font-family="Times,serif" font-size="14.00">23:&lt;REWRITE_SLOT:Hour&gt;/500</text>
</g>
<!-- 7 -->
<g id="node8" class="node"><title>7</title>
<ellipse fill="none" stroke="black" cx="1430" cy="-459.382" rx="18" ry="18"/>
<text text-anchor="middle" x="1430" y="-455.682" font-family="Times,serif" font-size="14.00">7</text>
</g>
<!-- 6&#45;&gt;7 -->
<g id="edge33" class="edge"><title>6&#45;&gt;7</title>
<path fill="none" stroke="black" d="M1310.22,-459.382C1333.32,-459.382 1374.57,-459.382 1401.86,-459.382"/>
<polygon fill="black" stroke="black" points="1401.92,-462.882 1411.92,-459.382 1401.92,-455.882 1401.92,-462.882"/>
<text text-anchor="middle" x="1361" y="-463.182" font-family="Times,serif" font-size="14.00">::&lt;KW&gt;/100</text>
</g>
<!-- 8 -->
<g id="node9" class="node"><title>8</title>
<ellipse fill="none" stroke="black" cx="1704" cy="-459.382" rx="18" ry="18"/>
<ellipse fill="none" stroke="black" cx="1704" cy="-459.382" rx="22" ry="22"/>
<text text-anchor="middle" x="1704" y="-455.682" font-family="Times,serif" font-size="14.00">8</text>
</g>
<!-- 7&#45;&gt;8 -->
<g id="edge34" class="edge"><title>7&#45;&gt;8</title>
<path fill="none" stroke="black" d="M1440.3,-474.418C1445.86,-481.924 1453.66,-490.265 1463,-494.382 1545.97,-530.944 1582.99,-528.488 1667,-494.382 1672.8,-492.029 1678.17,-488.246 1682.9,-484.019"/>
<polygon fill="black" stroke="black" points="1685.65,-486.216 1690.23,-476.66 1680.69,-481.278 1685.65,-486.216"/>
<text text-anchor="middle" x="1565" y="-524.182" font-family="Times,serif" font-size="14.00">00:&lt;REWRITE_SLOT:Minute&gt;/500</text>
</g>
<!-- 7&#45;&gt;8 -->
<g id="edge35" class="edge"><title>7&#45;&gt;8</title>
<path fill="none" stroke="black" d="M1448.01,-459.382C1492.7,-459.382 1613.92,-459.382 1671.64,-459.382"/>
<polygon fill="black" stroke="black" points="1671.97,-462.882 1681.97,-459.382 1671.97,-455.882 1671.97,-462.882"/>
<text text-anchor="middle" x="1565" y="-463.182" font-family="Times,serif" font-size="14.00">15:&lt;REWRITE_SLOT:Minute&gt;/500</text>
</g>
<!-- 7&#45;&gt;8 -->
<g id="edge36" class="edge"><title>7&#45;&gt;8</title>
<path fill="none" stroke="black" d="M1444.91,-448.921C1450.27,-445.497 1456.64,-442.126 1463,-440.382 1550.43,-416.381 1578.99,-418.583 1667,-440.382 1670.06,-441.139 1673.14,-442.208 1676.15,-443.458"/>
<polygon fill="black" stroke="black" points="1674.85,-446.717 1685.38,-447.904 1677.89,-440.41 1674.85,-446.717"/>
<text text-anchor="middle" x="1565" y="-444.182" font-family="Times,serif" font-size="14.00">30:&lt;REWRITE_SLOT:Minute&gt;/500</text>
</g>
<!-- 7&#45;&gt;8 -->
<g id="edge37" class="edge"><title>7&#45;&gt;8</title>
<path fill="none" stroke="black" d="M1435.9,-442.098C1440.58,-429.181 1449.02,-412.423 1463,-404.382 1541.6,-359.18 1587.24,-361.263 1667,-404.382 1677.45,-410.033 1685.36,-420.186 1691.06,-430.244"/>
<polygon fill="black" stroke="black" points="1688.03,-432.001 1695.69,-439.322 1694.26,-428.823 1688.03,-432.001"/>
<text text-anchor="middle" x="1565" y="-408.182" font-family="Times,serif" font-size="14.00">45:&lt;REWRITE_SLOT:Minute&gt;/500</text>
</g>
</g>
</svg>
