<?xml version="1.0" encoding="UTF-8" standalone="no"?>
<!-- Generated by graphviz version 2.36.0 (20140111.2315)
 -->

<!-- Title: FST Pages: 1 -->

<svg
   xmlns:dc="http://purl.org/dc/elements/1.1/"
   xmlns:cc="http://creativecommons.org/ns#"
   xmlns:rdf="http://www.w3.org/1999/02/22-rdf-syntax-ns#"
   xmlns:svg="http://www.w3.org/2000/svg"
   xmlns="http://www.w3.org/2000/svg"
   xmlns:sodipodi="http://sodipodi.sourceforge.net/DTD/sodipodi-0.dtd"
   xmlns:inkscape="http://www.inkscape.org/namespaces/inkscape"
   width="612pt"
   height="63pt"
   viewBox="0.00 0.00 612.00 63.13"
   id="svg2"
   version="1.1"
   inkscape:version="0.48.4 r9939"
   sodipodi:docname="ustawalarm_simpler.svg">
  <metadata
     id="metadata188">
    <rdf:RDF>
      <cc:Work
         rdf:about="">
        <dc:format>image/svg+xml</dc:format>
        <dc:type
           rdf:resource="http://purl.org/dc/dcmitype/StillImage" />
      </cc:Work>
    </rdf:RDF>
  </metadata>
  <defs
     id="defs186" />
  <sodipodi:namedview
     pagecolor="#ffffff"
     bordercolor="#666666"
     borderopacity="1"
     objecttolerance="10"
     gridtolerance="10"
     guidetolerance="10"
     inkscape:pageopacity="0"
     inkscape:pageshadow="2"
     inkscape:window-width="1920"
     inkscape:window-height="1019"
     id="namedview184"
     showgrid="false"
     inkscape:zoom="1.6563861"
     inkscape:cx="223.04706"
     inkscape:cy="-83.350034"
     inkscape:window-x="0"
     inkscape:window-y="0"
     inkscape:window-maximized="1"
     inkscape:current-layer="edge7" />
  <g
     id="graph0"
     class="graph"
     transform="matrix(0.335159,0,0,0.335159,1.340636,61.79427)">
    <title
       id="title5">FST</title>
    <!-- 0 -->
    <g
       id="node1"
       class="node">
      <title
         id="title10">0</title>
      <ellipse
         cx="18"
         cy="-72.373199"
         rx="18"
         ry="18"
         id="ellipse12"
         d="m 36,-72.373199 c 0,9.941125 -8.058875,18 -18,18 -9.9411255,0 -18,-8.058875 -18,-18 0,-9.941126 8.0588745,-18 18,-18 9.941125,0 18,8.058874 18,18 z"
         sodipodi:cx="18"
         sodipodi:cy="-72.373199"
         sodipodi:rx="18"
         sodipodi:ry="18"
         style="fill:none;stroke:#000000;stroke-width:2" />
      <text
         x="18"
         y="-68.673203"
         font-size="14.00"
         id="text14"
         style="font-size:14px;text-anchor:middle;font-family:'Times,serif'">0</text>
    </g>
    <!-- 1 -->
    <g
       id="node2"
       class="node">
      <title
         id="title17">1</title>
      <ellipse
         cx="184"
         cy="-72.373199"
         rx="18"
         ry="18"
         id="ellipse19"
         d="m 202,-72.373199 c 0,9.941125 -8.05887,18 -18,18 -9.94113,0 -18,-8.058875 -18,-18 0,-9.941126 8.05887,-18 18,-18 9.94113,0 18,8.058874 18,18 z"
         sodipodi:cx="184"
         sodipodi:cy="-72.373199"
         sodipodi:rx="18"
         sodipodi:ry="18"
         style="fill:none;stroke:#000000" />
      <text
         x="184"
         y="-68.673203"
         font-size="14.00"
         id="text21"
         style="font-size:14px;text-anchor:middle;font-family:'Times,serif'">1</text>
    </g>
    <!-- 0&#45;&gt;1 -->
    <g
       id="edge1"
       class="edge">
      <title
         id="title24">0-&gt;1</title>
      <path
         d="m 36.2409,-72.3732 c 28.4958,0 85.6381,0 119.6021,0"
         id="path26"
         inkscape:connector-curvature="0"
         style="fill:none;stroke:#000000" />
      <polygon
         points="165.99,-72.3732 155.99,-68.8733 155.99,-75.8733 155.99,-75.8733 "
         id="polygon28"
         style="fill:#000000;stroke:#000000" />
      <text
         x="101"
         y="-76.173203"
         font-size="14.00"
         id="text30"
         style="font-size:14px;text-anchor:middle;font-family:'Times,serif'">ustaw:&lt;KW&gt;/100</text>
    </g>
    <!-- 2 -->
    <g
       id="node3"
       class="node">
      <title
         id="title33">2</title>
      <ellipse
         cx="356"
         cy="-72.373199"
         rx="18"
         ry="18"
         id="ellipse35"
         d="m 374,-72.373199 c 0,9.941125 -8.05887,18 -18,18 -9.94113,0 -18,-8.058875 -18,-18 0,-9.941126 8.05887,-18 18,-18 9.94113,0 18,8.058874 18,18 z"
         sodipodi:cx="356"
         sodipodi:cy="-72.373199"
         sodipodi:rx="18"
         sodipodi:ry="18"
         style="fill:none;stroke:#000000" />
      <text
         x="356"
         y="-68.673203"
         font-size="14.00"
         id="text37"
         style="font-size:14px;text-anchor:middle;font-family:'Times,serif'">2</text>
    </g>
    <!-- 1&#45;&gt;2 -->
    <g
       id="edge2"
       class="edge">
      <title
         id="title40">1-&gt;2</title>
      <path
         d="m 202.236,-72.3732 c 29.605,0 90.331,0 125.652,0"
         id="path42"
         inkscape:connector-curvature="0"
         style="fill:none;stroke:#000000" />
      <polygon
         points="337.971,-72.3732 327.971,-68.8733 327.971,-75.8733 327.971,-75.8733 "
         id="polygon44"
         style="fill:#000000;stroke:#000000" />
      <text
         x="270"
         y="-76.173203"
         font-size="14.00"
         id="text46"
         style="font-size:14px;text-anchor:middle;font-family:'Times,serif'">budzik:&lt;KW&gt;/100</text>
    </g>
    <!-- 1&#45;&gt;2 -->
    <g
       id="edge3"
       class="edge">
      <title
         id="title49">1-&gt;2</title>
      <path
         d="m 198.909,-61.9124 c 5.365,3.424 11.736,6.7947 18.091,8.5392 45.431,12.4709 60.569,12.4709 106,0 3.078,-0.845 6.16,-2.0715 9.13,-3.5009"
         id="path51"
         inkscape:connector-curvature="0"
         style="fill:none;stroke:#000000" />
      <polygon
         points="341.091,-61.9124 334.09,-53.9607 330.659,-60.0625 330.659,-60.0625 "
         id="polygon53"
         style="fill:#000000;stroke:#000000" />
      <text
         x="270"
         y="-57.173199"
         font-size="14.00"
         id="text55"
         style="font-size:14px;text-anchor:middle;font-family:'Times,serif'">alarm:&lt;KW&gt;/100</text>
    </g>
    <!-- 3 -->
    <g
       id="node4"
       class="node">
      <title
         id="title58">3</title>
      <ellipse
         cx="628"
         cy="-72.373199"
         rx="18"
         ry="18"
         id="ellipse60"
         d="m 646,-72.373199 c 0,9.941125 -8.05887,18 -18,18 -9.94113,0 -18,-8.058875 -18,-18 0,-9.941126 8.05887,-18 18,-18 9.94113,0 18,8.058874 18,18 z"
         sodipodi:cx="628"
         sodipodi:cy="-72.373199"
         sodipodi:rx="18"
         sodipodi:ry="18"
         style="fill:none;stroke:#000000" />
      <text
         x="628"
         y="-68.673203"
         font-size="14.00"
         id="text62"
         style="font-size:14px;text-anchor:middle;font-family:'Times,serif'">3</text>
    </g>
    <!-- 2&#45;&gt;3 -->
    <g
       id="edge4"
       class="edge">
      <title
         id="title65">2-&gt;3</title>
      <path
         d="m 374.3,-72.3732 c 45.72,0 170.029,0 225.427,0"
         id="path67"
         inkscape:connector-curvature="0"
         style="fill:none;stroke:#000000" />
      <polygon
         points="609.844,-72.3732 599.844,-68.8733 599.844,-75.8733 599.844,-75.8733 "
         id="polygon69"
         style="fill:#000000;stroke:#000000" />
      <text
         x="492"
         y="-76.173203"
         font-size="14.00"
         id="text71"
         style="font-size:14px;text-anchor:middle;font-family:'Times,serif'">&lt;eps&gt;:{INTENT:SetAlarmForTime}</text>
    </g>
    <!-- 4 -->
    <g
       id="node5"
       class="node"
       transform="translate(-239.18521,0)">
      <title
         id="title74">4</title>
      <ellipse
         cx="1030"
         cy="-158.373"
         rx="18"
         ry="18"
         id="ellipse76"
         d="m 1048,-158.373 c 0,9.94112 -8.0589,18 -18,18 -9.9411,0 -18,-8.05888 -18,-18 0,-9.94113 8.0589,-18 18,-18 9.9411,0 18,8.05887 18,18 z"
         sodipodi:cx="1030"
         sodipodi:cy="-158.373"
         sodipodi:rx="18"
         sodipodi:ry="18"
         style="fill:none;stroke:#000000" />
      <ellipse
         cx="1030"
         cy="-158.373"
         rx="22"
         ry="22"
         id="ellipse78"
         d="m 1052,-158.373 c 0,12.15026 -9.8497,22 -22,22 -12.1503,0 -22,-9.84974 -22,-22 0,-12.15027 9.8497,-22 22,-22 12.1503,0 22,9.84973 22,22 z"
         sodipodi:cx="1030"
         sodipodi:cy="-158.373"
         sodipodi:rx="22"
         sodipodi:ry="22"
         style="fill:none;stroke:#000000" />
      <text
         x="1030"
         y="-154.673"
         font-size="14.00"
         id="text80"
         style="font-size:14px;text-anchor:middle;font-family:'Times,serif'">4</text>
    </g>
    <!-- 3&#45;&gt;4 -->
    <path
       style="fill:none;stroke:#000000;stroke-width:0.57077378"
       inkscape:connector-curvature="0"
       id="path85"
       d="m 642.05439,-83.187087 c 1.77823,-4.060514 3.92377,-8.32078 6.06705,-11.035132 38.22878,-48.413971 88.02224,-60.431271 109.08508,-63.401391" />
    <polygon
       style="fill:#000000;stroke:#000000"
       id="polygon87"
       points="997.659,-160.907 1007.8,-157.824 997.949,-153.913 997.659,-160.907 "
       transform="translate(-239.70708,-0.72200927)" />
    <text
       style="font-size:14px;text-anchor:middle;font-family:'Times,serif'"
       id="text89"
       font-size="14.00"
       y="-141.03818"
       x="525.62671">&lt;eps&gt;:&lt;ELICITATION_ACTION:SetAlarmForWhatTime&gt;</text>
    <!-- 5 -->
    <g
       id="node6"
       class="node"
       transform="translate(-181.78073,-43.053337)">
      <title
         id="title92">5</title>
      <ellipse
         cx="1030"
         cy="-34.373199"
         rx="18"
         ry="18"
         id="ellipse94"
         d="m 1048,-34.373199 c 0,9.941125 -8.0589,18 -18,18 -9.9411,0 -18,-8.058875 -18,-18 0,-9.941126 8.0589,-18 18,-18 9.9411,0 18,8.058874 18,18 z"
         sodipodi:cx="1030"
         sodipodi:cy="-34.373199"
         sodipodi:rx="18"
         sodipodi:ry="18"
         style="fill:none;stroke:#000000" />
      <text
         x="1030"
         y="-30.673201"
         font-size="14.00"
         id="text96"
         style="font-size:14px;text-anchor:middle;font-family:'Times,serif'">5</text>
    </g>
    <!-- 3&#45;&gt;5 -->
    <path
       style="fill:none;stroke:#000000"
       inkscape:connector-curvature="0"
       id="path101"
       d="m 646.007,-73.4662 c 62.24322,-34.58303 66.50293,-48.54074 149.41493,-39.70313 3.83005,0.40824 24.05344,10.28529 24.05344,10.28529"
       sodipodi:nodetypes="csc" />
    <polygon
       style="fill:#000000;stroke:#000000"
       id="polygon103"
       points="1005.89,-49.8464 1013.66,-42.6456 1003.09,-43.4283 1005.89,-49.8464 "
       transform="translate(-184.81463,-55.138066)" />
    <text
       style="font-size:14px;text-anchor:middle;font-family:'Times,serif'"
       id="text105"
       font-size="14.00"
       y="-118.99514"
       x="758.58795">o:&lt;KW&gt;/100</text>
    <!-- 3&#45;&gt;5 -->
    <g
       id="edge7"
       class="edge">
      <title
         id="title108">3-&gt;5</title>
      <path
         d="m 636.711,-56.5133 c 5.405,9.1753 39.10488,18.380887 72.79008,22.587412 100.32833,-2.534368 102.39551,-14.848291 114.87128,-25.297122"
         id="path110"
         inkscape:connector-curvature="0"
         style="fill:none;stroke:#000000"
         sodipodi:nodetypes="ccc" />
      <polygon
         points="1001.88,-29.9975 1012.46,-29.3151 1003.77,-23.2552 1001.88,-29.9975 "
         id="polygon112"
         style="fill:#000000;stroke:#000000"
         transform="translate(-178.17764,-34.206023)" />
      <text
         x="738.677"
         y="-39.2575"
         font-size="14.00"
         id="text114"
         style="font-size:14px;text-anchor:middle;font-family:'Times,serif'">na:&lt;KW&gt;/100</text>
    </g>
    <!-- 5&#45;&gt;5 -->
    <g
       id="edge8"
       class="edge"
       transform="translate(-181.78073,-43.053337)">
      <title
         id="title117">5-&gt;5</title>
      <path
         d="m 1017.61,-47.6657 c -5.3,-11.1045 -1.17,-22.7075 12.39,-22.7075 9.32,0 14.19,5.4842 14.6,12.5203"
         id="path119"
         inkscape:connector-curvature="0"
         style="fill:none;stroke:#000000" />
      <polygon
         points="1042.39,-47.6657 1041.09,-58.1796 1047.93,-56.6998 1047.93,-56.6998 "
         id="polygon121"
         style="fill:#000000;stroke:#000000" />
      <text
         x="1030"
         y="-74.173203"
         font-size="14.00"
         id="text123"
         style="font-size:14px;text-anchor:middle;font-family:'Times,serif'">godzinę:&lt;KW&gt;/100</text>
    </g>
    <!-- 5&#45;&gt;5 -->
    <g
       id="edge9"
       class="edge"
       transform="translate(-181.78073,-43.053337)">
      <title
         id="title126">5-&gt;5</title>
      <path
         d="m 1014.58,-43.9231 c -22.628,-18.8212 -17.486,-44.4501 15.42,-44.4501 28.79,0 36.33,19.6221 22.61,37.1364"
         id="path128"
         inkscape:connector-curvature="0"
         style="fill:none;stroke:#000000" />
      <polygon
         points="1045.42,-43.9231 1049.93,-53.5104 1054.93,-48.6057 1054.93,-48.6057 "
         id="polygon130"
         style="fill:#000000;stroke:#000000" />
      <text
         x="1030"
         y="-92.173203"
         font-size="14.00"
         id="text132"
         style="font-size:14px;text-anchor:middle;font-family:'Times,serif'">godzinie:&lt;KW&gt;/100</text>
    </g>
    <!-- 6 -->
    <g
       id="node7"
       class="node"
       transform="translate(-181.78073,-43.053337)">
      <title
         id="title135">6</title>
      <ellipse
         cx="1338"
         cy="-34.373199"
         rx="18"
         ry="18"
         id="ellipse137"
         d="m 1356,-34.373199 c 0,9.941125 -8.0589,18 -18,18 -9.9411,0 -18,-8.058875 -18,-18 0,-9.941126 8.0589,-18 18,-18 9.9411,0 18,8.058874 18,18 z"
         sodipodi:cx="1338"
         sodipodi:cy="-34.373199"
         sodipodi:rx="18"
         sodipodi:ry="18"
         style="fill:none;stroke:#000000" />
      <text
         x="1338"
         y="-30.673201"
         font-size="14.00"
         id="text139"
         style="font-size:14px;text-anchor:middle;font-family:'Times,serif'">6</text>
    </g>
    <!-- 5&#45;&gt;6 -->
    <g
       id="edge10"
       class="edge"
       transform="translate(-181.78073,-43.053337)">
      <title
         id="title142">5-&gt;6</title>
      <path
         d="m 1048.33,-34.3732 c 50.81,0 199.7,0 261.4,0"
         id="path144"
         inkscape:connector-curvature="0"
         style="fill:none;stroke:#000000" />
      <polygon
         points="1319.86,-34.3732 1309.86,-30.8733 1309.86,-37.8733 1309.86,-37.8733 "
         id="polygon146"
         style="fill:#000000;stroke:#000000" />
      <text
         x="1186"
         y="-38.173199"
         font-size="14.00"
         id="text148"
         style="font-size:14px;text-anchor:middle;font-family:'Times,serif'">[0-9]*[0-9]:&lt;REWRITE_SLOT:Hour&gt;/500</text>
    </g>
    <!-- 7 -->
    <g
       id="node8"
       class="node"
       transform="translate(-181.78073,-43.053337)">
      <title
         id="title151">7</title>
      <ellipse
         cx="1476"
         cy="-34.373199"
         rx="18"
         ry="18"
         id="ellipse153"
         d="m 1494,-34.373199 c 0,9.941125 -8.0589,18 -18,18 -9.9411,0 -18,-8.058875 -18,-18 0,-9.941126 8.0589,-18 18,-18 9.9411,0 18,8.058874 18,18 z"
         sodipodi:cx="1476"
         sodipodi:cy="-34.373199"
         sodipodi:rx="18"
         sodipodi:ry="18"
         style="fill:none;stroke:#000000" />
      <text
         x="1476"
         y="-30.673201"
         font-size="14.00"
         id="text155"
         style="font-size:14px;text-anchor:middle;font-family:'Times,serif'">7</text>
    </g>
    <!-- 6&#45;&gt;7 -->
    <g
       id="edge11"
       class="edge"
       transform="translate(-181.78073,-43.053337)">
      <title
         id="title158">6-&gt;7</title>
      <path
         d="m 1356.22,-34.3732 c 23.1,0 64.35,0 91.64,0"
         id="path160"
         inkscape:connector-curvature="0"
         style="fill:none;stroke:#000000" />
      <polygon
         points="1457.92,-34.3732 1447.92,-30.8733 1447.92,-37.8733 1447.92,-37.8733 "
         id="polygon162"
         style="fill:#000000;stroke:#000000" />
      <text
         x="1407"
         y="-38.173199"
         font-size="14.00"
         id="text164"
         style="font-size:14px;text-anchor:middle;font-family:'Times,serif'">::&lt;KW&gt;/100</text>
    </g>
    <!-- 8 -->
    <g
       id="node9"
       class="node"
       transform="translate(-181.78073,-43.053337)">
      <title
         id="title167">8</title>
      <ellipse
         cx="1796"
         cy="-34.373199"
         rx="18"
         ry="18"
         id="ellipse169"
         d="m 1814,-34.373199 c 0,9.941125 -8.0589,18 -18,18 -9.9411,0 -18,-8.058875 -18,-18 0,-9.941126 8.0589,-18 18,-18 9.9411,0 18,8.058874 18,18 z"
         sodipodi:cx="1796"
         sodipodi:cy="-34.373199"
         sodipodi:rx="18"
         sodipodi:ry="18"
         style="fill:none;stroke:#000000" />
      <ellipse
         cx="1796"
         cy="-34.373199"
         rx="22"
         ry="22"
         id="ellipse171"
         d="m 1818,-34.373199 c 0,12.150264 -9.8497,22 -22,22 -12.1503,0 -22,-9.849736 -22,-22 0,-12.150265 9.8497,-22 22,-22 12.1503,0 22,9.849735 22,22 z"
         sodipodi:cx="1796"
         sodipodi:cy="-34.373199"
         sodipodi:rx="22"
         sodipodi:ry="22"
         style="fill:none;stroke:#000000" />
      <text
         x="1796"
         y="-30.673201"
         font-size="14.00"
         id="text173"
         style="font-size:14px;text-anchor:middle;font-family:'Times,serif'">8</text>
    </g>
    <!-- 7&#45;&gt;8 -->
    <g
       id="edge12"
       class="edge"
       transform="translate(-181.78073,-43.053337)">
      <title
         id="title176">7-&gt;8</title>
      <path
         d="m 1494.1,-34.3732 c 51.08,0 203.11,0 269.41,0"
         id="path178"
         inkscape:connector-curvature="0"
         style="fill:none;stroke:#000000" />
      <polygon
         points="1773.75,-34.3732 1763.75,-30.8733 1763.75,-37.8733 1763.75,-37.8733 "
         id="polygon180"
         style="fill:#000000;stroke:#000000" />
      <text
         x="1634"
         y="-38.173199"
         font-size="14.00"
         id="text182"
         style="font-size:14px;text-anchor:middle;font-family:'Times,serif'">[0-5]*[0-9]:&lt;REWRITE_SLOT:Minute&gt;/500</text>
    </g>
  </g>
</svg>
